/* XPM */
static char *d1328bc2dc274a85c22e1294671a35c0zCAfRrQiiR2472V7[] = {
/* columns rows colors chars-per-pixel */
"64 64 48 1 ",
"  c #271C46",
". c #271E4A",
"X c #291F4B",
"o c #281F51",
"O c #2A214E",
"+ c #2C2452",
"@ c #2F2856",
"# c #2E2859",
"$ c #302756",
"% c #312957",
"& c #302758",
"* c #322D5C",
"= c #34315F",
"- c #332F60",
"; c #363463",
": c #393666",
"> c #3A3867",
", c #373669",
"< c #393769",
"1 c #37386A",
"2 c #3C3B6C",
"3 c #3E3E71",
"4 c #403D6E",
"5 c #413F72",
"6 c #413F78",
"7 c #3E406F",
"8 c #3F4073",
"9 c #3F4179",
"0 c #424174",
"q c #44447A",
"w c #48467C",
"e c #47487D",
"r c #4A497E",
"t c #454581",
"y c #454880",
"u c #4D4C83",
"i c #4E4E88",
"p c #504E85",
"a c #514F89",
"s c #4F5186",
"d c #4F518A",
"f c #515087",
"g c #52538B",
"h c #56588F",
"j c #555691",
"k c #585792",
"l c #565893",
"z c #585993",
/* pixels */
";%*:040w5064oXo+***>311,-**:000q:=;<2<332<<2<<<;2q00;;;;144w532<",
"qO+>>:4gp0524>>>:X%ruiw2;OO<2<2ff24pgggaf>>ruuu2>65>>1><>OOraaa5",
"w+%4445kkqq53344>o$paai3>O$>333jh54gzlzzj54pggg02qq532332++pkjk6",
"q++>>44gr552<22>:X$ruiu3>X+><13gp22aaddip4>ruuu<<36>22<<<+Owaaa3",
"q4565560:;:;<::<044wqww4$ .+;<13qq0w2>>>wq0w3<<,:;:=+O+O445e2>><",
"kjzggfgr4245qqqwghzkffgr$XX+3q0qghhg5220gkhgwqqq7282OOX+phlgq>44",
"zkkggagp4222qqqqhjhhfffroXX+0q0thhjg8250gzjjqqq98737+OO+rzjj0724",
"q4544554:>113<<<0w000ww0&$&&<,1<qwyu<;::0utu31<<;=*#O@+#qqqw<<2<",
"=O  O>112rrrr>>>>>>>7rffppuur2222rfff4>22fffp4><;OO Owrrr0656uap",
":OOO+2080ffff0702000whhkkgaap6330hkzg0440fkkk5527OOOOrgsprt6wazh",
"=O O+>210rrsw2>712210fffguupr4314agfg<<<4ggfa5>4>O OOwsupq658igg",
"=*==:>11qwrrw0q0:;=;00ww2><,2,11<550wqw0:>>>wqqq;=**=::>qwqq<<1<",
"0277q0qekhhhzhzg8270fffs5424qq9qq9qtgkhg0445gzhh07402770gljj0728",
"0702qq9elhzjzhls8220ffgs4>25qwq3qq66jkhh0>45gzhh020>77>0glll0228",
":>::<<<4wwwwqqe0::::000q1<<:<<<33642qqww>>2;0wqw21:=::;:0qee<::;",
"<111<>4pruw050803066300fggf2<22faaa6556pgga5>>>fgff7<>>4550wuuu@",
"2738200fgguqqqqwqq6qq6tkhlg0320hkkjq6qwjzzj0455gzhhq0700q0qsgaa*",
">1><>20rufw03630635655qgggu22>2fagpq556pdgg<>>4pggf412>4000wuuu+",
">;;>qqw0<<<::<wq,:,<qqqw2<#+:;:<54><:>6r<3<::>5r22<>00<:<33q*$65",
"022qhhzf432530jd522qjjjg0<+O2328qq4246jh5333qwgj02>0gl05qqii$Xpz",
"422qhhkp032270hf0250jjlg5:O+2220qq4>20gg02536qgh0220fh02qwuu$Xpz",
"><<<q0wq<<<*=>qw><<<qqqw<:++=;;<>4>;:2wq:;;=;>6w>:::00:;1<00*+4r",
"igu9224adgwOO>7ffgu3322gdgf>>22dagp2<fi938<+O>4ugff2>>28330uw4>u",
"jzgw32qjlluO+40zjzjq820hjjh0230jkjj05gjqtq9+O>6gzhlq44009tqfp05a",
"iaa6>>0fffrOO>0fggp6>>5fggf2>>2fgpu2>sf0333+X;2pjaa3>>10630wr4>r",
"3<<;==:>72:**==><>>;;;:2www0:=;>2>>;0wwq31<->55q613100qq<,;<qqwr",
"6222>00>020>272224452770glhg77472220gjzhtqqqagddqqqqhkjgq323glhz",
"023270>0>>40720252447220lhlg0>773300ghjhqqqqagdgqqqqhjlh0328gzzz",
"=:122>7==><:=:>>:;:<<<<<q0qw21:====2www0:223qwq8:<<6wwwq:;:2wrrq",
">30dsgr10fu2>>2sp58uussdu>2asfs7>OOuggs22uggggd2<3qagsf8<<>ussf%",
"5qtlhls80gg8270hgqqdddglg50jlhg01O+gljg00fzzllj8339jllj0723gljh*",
">30gfgs17su>>22fp20uuuugs>>gggs1:OOuggg20wfgfgd3233usfg02<<uggu$",
";;:>rwt4+*+&qqqt1;:<ewwe>::<0wq8:**:12>:0rrw2<>:0wqw>>2:OOO+:1:=",
"5556kjku+XO&gzld0270jllg0223sggd02777178gllg0720ghhg0722+OOO:870",
"525qjgzuXXX&gzzd0279jjlg4288sdsd87177110hlhh0220gllh0072+OOO1370",
">:,>wqq3+++&wqw0;:11weeq<::>0900;;;;=::2wqq0>>12wqqq<<1:@OOO=,::",
"u83336356uppw2<27uusuuuiu8808122>>1>0sfff2>>2ugsg0839ihgf2><1303",
"dq9tqqtqwgjau0350sdddddddqqq087202078hzlg0070gllhq0qqjlllq830qtq",
"u03860656puaw22>2sysuiuuy9883<2<>>2<2dggf7212sggd0059uggg2<22333",
"q4q3;;;>qww6>;;;;>>1<33333<<0888q0q0<328r0q0::><wqq01<122>::60qt",
"gpgu3229jhja52327242q0qq9qqqdddjhllhq99qgjlj02<8gjgh0242qq9qjljl",
"gggu8289ljzi32228783qqq9t99tddddlljjtqqqjzjh0388gzjk05259qqqdljl",
"qqw01:;:wwwq<;;;::::<11331<<80qqwqq9235>qwq0:**;qqwq::::,;-,56t6",
"6fpfu7714ppgu>>2<<>>238su32<2uw2>221>uu4>3665OX>4>2>>wu><+XXo>3+",
"0hjld9980jjzf027783336tzg3338uu827440fh03qtt3+X>55525ua04$XXX46$",
"9gdls3215gags>11121<<36di2<32ee2>>>44rr4<6663oX,>23>4qt54OXXX<4$",
":1<<<::;;>>4w0q0;;;:06ww<:;;;1::0000qww0<<<16556><>:>2<4X  X4656",
"073222224440hgls8220gjzg82228228hhhhhhhgwqqtjzkkw0qqw665$  Xpkkk",
"777277727220hhzg8230hjld87383228jjjjhhjht96tjzkkwq6tq9q9+XXOpkkk",
"=;;;:;;;;<20wqw0:1<3ywq91**#;:::0tuuwqqq3333qqqq31212111+&$%q646",
":>>2>>>>7fgfu2<<2ssgu3391OOOO<>>2dgga2111tuut4<:2wutr2<<<uffp$XX",
"7702>0700zhzf0780lllhttt8OOOO2700gjjj0726aggp5445iggs8838gzhh*oX",
">><117<10gggu2>23gggu9001OOOO:>13dggd2<<5uuup4>>2usru2<32ugaf*XX",
"0087:>00qwr0@@55<<<3uq++;=**;:;;,<<3w008<<1<qq5>:<<>qq1;,22<*X;;",
"gggr70ggzhzu+$gp5425huoO228899722430hlhf0233ghgu3222fhw85254$Owa",
"gfhs2qhgkhhpO%gp0230ka$X<772q9724440gljg0720gkgu0200ghwq5244OOwa",
"5444-,qwrqq>Xo65:**;65++;<>:21;>:;;>wrr6>::;2qq6>==:qq<<<,,,&X45",
"qoXo+3qgp4;XXXX4:XXXo>2>7ffps77su++rpgp4>>>Oo;2uuOOqu23sg65up4>>",
"rOXO&6tza5<XXX$4>+oX$2450hjkg88ga$$pllg0072++46ug+Org00fjwqaj554",
"wooX+60gp2;XXXX>:OOXX4<>7sgds37fu++pgga212<OX>>uu+Owr22fg65up4:4",
"w54<;;,23<,;4452+..X*;;:0wuq*O+@>**<<2<:;;;==;;<<=*>qqqwyqqwrq6q",
"kkzp02336q6tkhzu+XX+<328hhld+OOO>0257233022227722727glllllllkkkz",
"khkg3223ttqtkhzu+XO+3220hlhuOOXO44>27223272227272420ghhzjjhhhjjz",
"www5;--;<,>2qqw6OOOO;:::00q0OOOO==;;==;;==;;;;;;;=;;qwwrqwwqqwwr"
};
