/* XPM */
static char *_c41fecdbb994a2aa52b86b2baaa4f2cFI0HjRPTfZJhXsYP[] = {
/* columns rows colors chars-per-pixel */
"64 64 158 2 ",
"   c #070505",
".  c #090606",
"X  c #070708",
"o  c #0A0708",
"O  c #06080A",
"+  c #0D0A0B",
"@  c #110605",
"#  c #150806",
"$  c #1A0807",
"%  c #120C0D",
"&  c #1E0B0A",
"*  c #150E11",
"=  c #161111",
"-  c #1B1315",
";  c #1F1618",
":  c #1F1D1D",
">  c #280C07",
",  c #230C0B",
"<  c #320C07",
"1  c #340B09",
"2  c #3C0D0A",
"3  c #3B110B",
"4  c #251614",
"5  c #2C1413",
"6  c #241A17",
"7  c #21171A",
"8  c #241A1C",
"9  c #291D1E",
"0  c #331614",
"q  c #3E1714",
"w  c #3E1C15",
"e  c #371718",
"r  c #361C1C",
"t  c #3B1D1D",
"y  c #25201E",
"u  c #2A201F",
"i  c #35201C",
"p  c #38221D",
"a  c #261F20",
"s  c #2A1E20",
"d  c #2E2223",
"f  c #322525",
"g  c #3D2422",
"h  c #342927",
"j  c #352728",
"k  c #362929",
"l  c #3B2D2D",
"z  c #3F302F",
"x  c #3F3232",
"c  c #430E0B",
"v  c #490F0B",
"b  c #590F0E",
"n  c #45110C",
"m  c #4C110D",
"M  c #53120E",
"N  c #5B110E",
"B  c #441511",
"V  c #4B1611",
"C  c #431D14",
"Z  c #4C1C13",
"A  c #531511",
"S  c #5E1511",
"D  c #511A14",
"F  c #5C1A14",
"G  c #61130F",
"H  c #621611",
"J  c #651913",
"K  c #6B1D15",
"L  c #6E1F18",
"P  c #701F16",
"I  c #472116",
"U  c #4A2016",
"Y  c #442118",
"T  c #532419",
"R  c #5D261B",
"E  c #5D281B",
"W  c #622117",
"Q  c #6F2017",
"!  c #622419",
"~  c #6C221A",
"^  c #60281B",
"/  c #712017",
"(  c #742319",
")  c #75251A",
"_  c #77251A",
"`  c #7A251B",
"'  c #7A271B",
"]  c #7D261B",
"[  c #79261C",
"{  c #762A1E",
"}  c #7B281C",
"|  c #7B291C",
" . c #7C291C",
".. c #7E2A1E",
"X. c #7F2D1F",
"o. c #4B2421",
"O. c #4D2F2D",
"+. c #512723",
"@. c #512724",
"#. c #502824",
"$. c #5D2B26",
"%. c #5F2B26",
"&. c #5C2D27",
"*. c #5F2C27",
"=. c #542A2A",
"-. c #40302F",
";. c #443433",
":. c #483736",
">. c #473836",
",. c #493937",
"<. c #4C3B3A",
"1. c #503E3C",
"2. c #612C27",
"3. c #602E27",
"4. c #652E28",
"5. c #6D2E29",
"6. c #772D20",
"7. c #7E2D21",
"8. c #7B3121",
"9. c #71332C",
"0. c #75372E",
"q. c #54413F",
"w. c #564341",
"e. c #5A4643",
"r. c #5D4946",
"t. c #604B47",
"y. c #634D49",
"u. c #67514C",
"i. c #69534F",
"p. c #6E5751",
"a. c #635C5E",
"s. c #6D6465",
"d. c #706667",
"f. c #716768",
"g. c #746A6B",
"h. c #796D6D",
"j. c #7E7170",
"k. c #802A1F",
"l. c #812C1F",
"z. c #822D1F",
"x. c #802B20",
"c. c #822E21",
"v. c #842F21",
"b. c #843021",
"n. c #853021",
"m. c #853123",
"M. c #863122",
"N. c #863222",
"B. c #8A3425",
"V. c #8E3929",
"C. c #913B2B",
"Z. c #837675",
"A. c #857877",
"S. c #8B7D7B",
"D. c #92827F",
"F. c #968682",
"G. c #988784",
"H. c #9B8A86",
/* pixels */
"%.5.5.9.9.3.*.*.*.*.*.#.o.o.g 8 : : : : : : : : : : : : : : : : : : : : : : : : : : : : : : : : 8 p T #.#.*.*.*.*.&.4.0.9.4.5.o.",
"F K W J J F F S S F D M M m < X X . . X X . . . X . X . . . . X . X . . . X . .   . X . . . .   + 3 M V A F F S F S F J J W K V ",
"J 7.{ K H H J J H J J H S S 3 O o .     . . . . X . . . . X . . X . . X . . X X . X X   X X + . @ n S S H J J J H J H J K ..c.Z ",
"F x.m.( J J J H H H H N S N 1 .         X   X   .     X         . .     .   . .           .     + c N N N G G J J J J J 6.v.x.V ",
"W ..b.z._ _ ( ( K H H S N M 1 .                                         .                       o c b b S G J K ~ _ _ ' v.v.k.m ",
"J ] m.m...} ' ( K J H N N M 1                       .         .         .                       @ 2 N b N J K K ( } [ ..m.c.' A ",
"J ' x.m.' _ _ Q K K J S b b 1                       .                                           . 2 N N H J K K ( _ ' } b.X.' V ",
"R [ m.z.} } _ Q K K J G N b 1           .                                                       @ c b b H K K K ( _ ' ..c.z.] V ",
"F ] z.n. . .( P K K J G N b 1 .                 .         .             .     .     .           @ 2 b N H J K _ P _  ...z.X.' m ",
"W  .n.c._ ] ( ( K K J N b N 1                         .             .                           @ c b N H H K K P _ ' } m.z.X.V ",
"W k.z.m.' _ ( / K K H H b b 2                                 .   .           .   .   .         o c b N H J K K ( _ _ ..b.X...V ",
"W k.z.z._ _ ( P P K J N N b 2                   .         .             .                       @ c N b G J K K K ( ( ' b.z.c.V ",
"W k.z.z._ ( ( K K K J S b b 1               .         .                                   .     @ v b b H J K K Q ( ( ' b.z.X.Z ",
"~ k.z.z.( _ ( P P J H G N b 2           .                 .   .   . .     .   .   .   .         @ v b N H G K K K ( ( ' b.z.z.D ",
"W ..m.z.( ( ( K K K J H N b 2 .       .                     .       .     .       .             @ v b N J J K K ( _ ( _ z.z.z.V ",
"W z.z.z.( ( _ K J Q K G N b c .               .       .                                 .       @ c b N J K K H K ' _ _ z.z.z.V ",
"W k....._ ' ( H _ ( J H N N 2 .                     .                                           # v b N H K ( Q J ( ( ( 7...k.V ",
"W ..z..._ ( J ( { J J H N M 2 .   .                       . .       .       .                   @ v N S H K K 7.K K _ _ z...b.V ",
"! ......( K _ x.( K H H S N c .                 .     .   .     .       .                       @ v b S H J K _ ..( K ( z.} ..Z ",
"W ..} ..( K x.7.K K H H S b c .                                     .       .                   # m N G S H K K c.7.K ' X.....Z ",
"W ....[ B.c._ ( H J J G N N m .               .   .     .     .             .                   # m N N H J H J ( ' B.B.' ....Z ",
"W ....V.V...( J G J J H N N c .                                 .   .                           # M N H J J K G K ( 7.C.m.} 7.Z ",
"! x.7.C.7.( K H K K J J H N m .                 .                         .   .                 # M N H J H K K H K ( m.C...X.Z ",
"! x.} v.[ ( J K K K K J H N m .       .       .       .           .                             # M N G K K J K J K ( ..x...x.Z ",
"! m._ _ [ K K ( K K K H H N m .                         .     .   .                             # M b H H K K K ( K K 7.( ' x.Z ",
"! m.[ ( K ( K [ ( K J H G N m .                                       . .     .       .         $ A N H J K K ' _ K ( K ( ..m.Z ",
"! v.X.[ L ( ' 7.( J J H S b v o                                                                 $ M N H H J J [ 7._ ( K } x.m.Z ",
"! m.m.x.( ( v.7.K K H H H G m o                       o   .       .       .                     # M N H H H K K ..x.( ' m.x.m.I ",
"^ c.m.B._ ..m.L K J G H S N v @                             .       .                           $ M b H H S J K ( b.7._ V.z.7.Z ",
"! 7.k.k.v.B.( K K S H H H N v o                   . .   .               .     .                 $ M N H H H H K L ' B.c.z.X.c.U ",
"R c.7.v.v.7.K K J J J H N G m @                     .           .                               $ M N H J J J J K L 7.v.b.z.m.C ",
"R c.7.B._ ( K S K K K H H N m o                             .       .     .                     $ N N H H K K K H K ( } B.X.8.V ",
"! 7._ _ ' K H K ( K J H N G M @                     .   .     .   .                             o N N H H K K ( J G ( _ ( ' 7.V ",
"R 7.' _ K H K ( P K J H G N m .   .       .     .                     . .     .                 $ M b G H K K ( ( J J K _ ..8.Z ",
"^ x.X._ K K ( ( K K J J H N m .             .                                                   $ N N J H J K P ' ( J K } 7.m.C ",
"^ m.x._ _ ' ' K K K J H G G M @           .           .           .       .                     $ N b H G J K P ( ' ' _ } m.m.U ",
"E m.m.m..._ _ ( K K H H H N M .                                                                 $ N N H J J K K ( ( ....m.m.7.U ",
"^ c.m.B.] ( ( ( K K J H H N M o             .   .     .             .   .     .                 $ N N H H J K K ( ( ( X.B.b.z.U ",
"! 7.k.B.' ( ( ( K K J H G N M @           . .                     .                             $ N N H J J K P ( ( ( ..B...8.U ",
"E 7...B._ P P P K J J J G N M .                   .                 .     .                     & N N F H J J K K ( ( } m...x.U ",
"E m.k.n.( / ( K K J J H S N M @                     .                                           $ N N H H J J P ( K ( _ k.c.m.I ",
"E z.z.m.( / P ~ K J J H S H M o                                                                 $ N S H H J K K ( ( K _ m.k.7.U ",
"E 7.X.m.( ( ( P K K H H H N M @                                                                 $ G N H H H K K K ( K _ b...X.U ",
"E } x.m.( P P P K H H J S N N o                                                             X   , N b H H H J K K ( K ] m.c.{ I ",
"E } ..v.( K L K K H H H H N M @ . o o                                               . X . . X X & G N H H H J K ~ K K _ m.} } I ",
"E [ ' 7.( K K K J K H H S S N # O + o X . + + +       o               o o       o + + . X . % O & N N H H J K J K ( K ( n.} { U ",
"E ( ' ..( K K J ( K H H S N N % + % + + % * % % o o o o     o o   o     o + . + % % % % + + % X , G N H H H L K J K K } 7._ { I ",
"E 6.' ..' K J ( ( J H H H G m % + + + % % + % % % % % o .     o .     o @ % % % % % % % % % + + , M G S H H K ( ( H K _ .._ X.I ",
"T } [ 7.P J L 6.J J H H H b 0 % % % o + + + o % + % % + o o o o o o o + + % + + % + + + + % % % - 3 N H H J H Q } Q H ( ..' } C ",
"T [ ..} J K x.K J J H J N > 6 6 7 - % % o % % % % o o % % o o o o o % + % % + o + % @ % + = - 7 6 4 < J H S J J Q X.K J ..} { C ",
"R 6.[ 7.7.K ( K H K H S q = 7 7 4 ; * * * * % % * % * * o * * % o * + % % * % * * % % * % - 7 7 6 ; = V H J J G K _ ( 7.7.} { I ",
"T _ 7.B.m.P K J H P H B 6 ; - - - - * * * * % * * * * * * * * * * * * * * * * * * % % = - % - - - - 7 6 m J Q H J K ( m.B.} { Y ",
"T ( _ b.( K J H ( J 3 9 d - - - - - * - - - * * + * * % * % * * * * * * * * % * * = = - - * - - ; = 6 y 9 n J ( S K K _ b.( ( Y ",
"Z 6.( ( ( K J K K 3 6 h l d y y 8 7 9 d s j s 7 * * * - * * * * * * * * * * * - 7 f j d s 8 7 8 9 8 f z d 4 n / / N Q ' ( ( { w ",
"Z 7.Q K K H ( K 2 p l -.q.q.;.h a 8 j l z ;.;.s 7 7 7 - - - - * * - - - ; ; 7 6 f >.;.l l f s s l ,.q.q.l l i n _ K S ~ Q ( { w ",
"T 7.K ( ( K ( &.p q.,.-.i.i.e.l a a j z j z ;.j s s 7 7 - - - - - - - - 7 6 d 9 k >.k k l d 9 s z r.p.t.-.<.<.p ~ ( J ( Q ( 6.w ",
"T 6.K L v.K D :.q.,.z ;.t.y.q.k s s j ;.l :.:.j s s 8 7 - - - - - - - - 7 7 s s l <.;.z z f s s l e.y.w.z ;.<.<.O.A _ v.K K { Y ",
"T ( K c.' v g k d 8 d ;.:.1.>.f l x -.1.r.r.e.l 8 8 s 8 - ; ; ; - - - ; s s 7 s ;.e.r.e.<.l l j j <.<.>.l d a d l g c ..7.K ~ Y ",
"T 6.c.k.B g ,.z k h z >.;.;.;.k x k x <.e.w.:.l d s s 8 ; ; 7 7 7 7 ; 7 s s s f z ,.e.w.<.z l l l >.;.;.>.l k j ;.,.t A m.c.~ Y ",
"T 7.c.A r q.w.1.<.q.<.<.>.l :.:.j j j ;.:.:.j j j j s s 7 7 7 7 7 7 7 a s s j j k k :.:.-.j j l :.;.x ,.<.<.<.w.<.w.,.r J B.8.Y ",
"Z m.3.5 <.w.<.1.,.,.<.<.>.-.:.>.l j j ;.<.:.l j l j s s 7 7 7 7 7 7 7 7 8 s j k k l <.<.;.k j l >.>.;.:.<.<.<.,.<.<.e.x 5 { 8.C ",
"C F O.x w.w.<.<.<.<.<.<.:.;.:.;.l k l ;.<.<.l l j j s s s 7 7 7 a 7 a s s s k k l x <.<.;.k k l :.:.;.,.<.,.,.<.1.<.e.w.x =.F w ",
"0 t e.i.y.y.t.r.r.e.w.w.,.l l :.:.:.1.q.w.<.l l l l s d d s 7 7 7 7 s d d j l l k l 1.q.q.<.:.:.;.k z <.w.w.r.r.u.r.r.u.i.1.e 5 ",
"g.g.D.H.G.G.G.H.F.F.S.A.Z.d.s.j.A.A.S.S.S.Z.f.f.h.h.f.f.f.s.a.a.a.a.d.f.f.f.g.h.g.g.A.S.D.S.A.A.h.s.g.A.A.S.F.F.H.G.G.G.H.S.g.g."
};
