/* XPM */
static char *_1ef7066a3ff4119af6431f372ec3517uDuX7TGjdTdoXnUQ[] = {
/* columns rows colors chars-per-pixel */
"64 64 84 1 ",
"  c #590E10",
". c #5E1411",
"X c #621612",
"o c #661913",
"O c #6B1D16",
"+ c #6D1F18",
"@ c #701F17",
"# c #701F18",
"$ c #6F2017",
"% c #6E2019",
"& c #712017",
"* c #74231A",
"= c #79261B",
"- c #77281C",
"; c #7A281D",
": c #7C281C",
"> c #7C291C",
", c #7C281D",
"< c #7D2A1C",
"1 c #7E2A1C",
"2 c #7E2B1C",
"3 c #7C2B1E",
"4 c #7F2B1F",
"5 c #7F2C1F",
"6 c #76321C",
"7 c #7D361D",
"8 c #6A2623",
"9 c #6D2824",
"0 c #7E2B20",
"q c #7E2C20",
"w c #802B1D",
"e c #802B1E",
"r c #802B1F",
"t c #812D1D",
"y c #832D1E",
"u c #832D1F",
"i c #832E1F",
"p c #842E1F",
"a c #802C21",
"s c #802D21",
"d c #832D20",
"f c #852F22",
"g c #833022",
"h c #863021",
"j c #843022",
"k c #873123",
"l c #843024",
"z c #873224",
"x c #893222",
"c c #883323",
"v c #883325",
"b c #893325",
"n c #893424",
"m c #883425",
"M c #8A3424",
"N c #893426",
"B c #8A3426",
"V c #8C3525",
"C c #8C3527",
"Z c #8D3726",
"A c #8C3727",
"S c #8E3727",
"D c #8E3827",
"F c #8C3728",
"G c #8D3729",
"H c #8F3829",
"J c #903929",
"K c #923B2A",
"L c #943D2C",
"P c #966029",
"I c #9B712D",
"U c #B2732F",
"Y c #AC7E30",
"T c #9D7370",
"R c #A07572",
"E c #A17572",
"W c #A17673",
"Q c #A27673",
"! c #AE8735",
"~ c #B99738",
"^ c #C69239",
"/ c #E0B543",
"( c #E2B944",
") c #EADC4B",
/* pixels */
"TTQQQQQQTQTTWTWWQQQQTQTQTQQTQQQQQQQTQTQQTTQTQQTQTQTQQQQQQTQQQTQT",
"XOO+O+OOO%+%%+++++OO%+++++++++OooO++%++O+++++%+O%O+%O+O+%O+++OOX",
"O%&**8***%**--***-**$*****-0*9*+O*09--****-&*9**0**-9*%***+8**%o",
"o*****%&**%-*;;99**--;q-q;q;0q-**;*q;40;;;;-0%--*-;****&$******o",
"X*;;*5q544;4qqq0qqeqsjjjqzsb*&-q4-*-zsfbggqsqq4eq0000;44455*q;&X",
"o%5s&cMAbjzzMMbMMMzzMMMMFbFH*&-zz-&&GMMAHMHMzMjczzbFzzgbAMc&qq&o",
"X*qq&uMM;440qq05qqqqqqu:qqHF&&;qq-$*MGs0qqqq444400qq04;4MMu&qq*o",
"o*qq&eMjXXoOoOooooooOOooXOMF*&-mf-$*HMOoooOOooOoooOoOoo.gM4&4q*X",
".*4:&uAjXoooooOooooooooooobH*@;fz*&*GbooooOooooooOoooooogM4$::$o",
"o*::&ucA&====:====<==:=4&ozK&*=jz-**Kbo&;*===;===-::*:**AMu*:4*o",
"o*4=*uMD;uuppspejjsjpfpp*XbK&e4AA:4OKbX*jfusfugqgusuuuu;HMu*=5*o",
"o:4=*ucD;sspfuffsujspppf*XbG#euAApa&AbX-pefppjsuguuuuju:MAu*=5=o",
"o-5:*tcD;uguuuusuuuuuupf;XMG&esAAs4#GbX*pu5uuu5uuuqupju:Dcu*;5=o",
"$:5:-ucD4uguusspuu5uu40j*XMcO4sGGuu@cbX=j4uuguuuuujutgu:Dcu*;54O",
"o554*ucD4uuguuppu44usues-XMM@fsHFsf#GbX*j4uuuu5uuuuhguu2Dcu*=5:o",
"o=<4=5cD:=uuuu0e44444;0s*.zz&fjGMfu#jb.-p<=4544455u5uu:4Dc5=5u<O",
"o<55-:cD::uu555:25<<4==u*ofz*sabGfa*zzo*u====u44:255u5::Dct=u5=o",
"o:55=5cD=52u:5<u:5544==u;ofb*szbjfp*bfo;u=:4uu<<55u:552=Dc:=5::o",
"o2u5=5cc:::55255<5545==u*ojM-sfzbza*Fzo*u:*u444<25:55=<:MMu=555o",
"o=u3*5MM=2=5::5==55<55:u*obG*sfbbss-Gqo*u;45:54=:5::<<==cM5*5u=o",
"X=u5&<cc:==:4:4<=u<455=:*obA@afbbcf@Azo*::5u4:4::5:5:===cc;&5u*o",
"X*54O<fc*==:u<<==<=u:==*#ObG@4fczs4@KjO&**=-e::=:2=55===cj4O35*X",
"o*psO:hc==;e5=<===:4==:=&ObGOsfAMs4+Kbo&*:==ee;=:*4<::==pc:$qu*o",
"o*jpO<hh==4=4<4:==4:==:*#ojK+0jbAs4+Kbo$=:==::==54554:==cj;$j5*o",
"o*sjO:cc=4<:4;<:==::==;=OXcKO;fcbf4+Abo@;:;=::;=<<<w<=4=cc:Opf=X",
"X=fcO:cc*@*@&**@*&*&O+O*OXcAO4zbbc=+AfXO#O@@@*@*&@**@*@*cc<Ocf=o",
"o*bbO:cA::=:;;;4:=:=-;-;*XaAO;fbbea+MjX*;-;*;:;4:=<=<:;=Ac:Obj*X",
"o*bcO4cLLLLLLLLLLLLKLLKLG;fbO4bbbfe+bf=ALLLLKKLLLLLLLKLLLcwObc=o",
"o*zz+0accAcDcAMMDDcDDcMFbefbO0fbbs;OAs0MMGFGHcGcAAMMAbbMcu4Obb*o",
"o*MMOe44:::4=44u5<44uq44:=bAO;fbcs0OGj;e404:e;44e<;::=e;4e4Ojb*o",
"o=bjOpsp*=********-**-****bLO;sjbe4OLb****---*;****;*;=*sjuOjb*o",
"o*gjOeSVo@@OO+OOoOOoooooXXbKO0pbbf;OKbXXooooooOoOO+OO%OOcAuOjc=X",
"X*cj&eAK**==*==******&O*OXsGO4acjf;+GsoO&O&***;**;=*;***KGe@fc*X",
"o*jf@ecA:;=a;;444=4;=;**@ofK#4pAbfe*Kso@**;4<=::;::;::::Mbe@jj*o",
"o*jb+ecAessseusseeu544*q;+es&ascMsa#s:+;=;554sssdaeassfsGce+fc*o",
"X=cj+ecLLLLLLKLLLLLLLLLLK0:==;szzs;=:;0KLLLLLLLLKLLLLLKLLcyOjf;o",
"o*cp+pucbbbbccMcbbzbzMmMfOPYU;4cq0;YYP+sDMMMccccVbbbbbbbcuu+bc*O",
"O=cfOu4=::;e==4;4;=4;4;g*o!)/--gj0-/)!o*5u;=4:<<::::0;;;=4u+jf@O",
"O*sc*us;&**************4%%!)(%*cM**()!*+******=**#******;su&cs*O",
"O=sbOpAboXOOOoOOOOOooOOo.%I~^*=bb;*^~IOXOOOooOooOOOOOoOXjAuObf*O",
"O*gz+5MD===**===**=*==*=+.6g7*4bz0*77q.+-*;==-*====**===DAtOjj:O",
"O*jb+ucKcppu<ppujupjcuuc;.OO ;jjzs; OO.;gsucjuppppp4ppfcKcuOjj=o",
"O*us+eMHpu4u=jpuuuuuu4uj*X;;X;sbjf;X;;X*ceeuuuuuupf=epeuGcu@jj=o",
"O*fb@eMKp=<:<ju5uu5uu4uc*Xs-o;jGGf;o;sX*cuesu5555uu=ee:eKMeOzu=O",
"+*bsOecK:=:4=4u<45<u5<4p*oseo;jGcb;o;jo*se<u:uu5554=e<=:Kc4+jj*+",
"O*4s&ecH==:e*=44<44<5=:u*oc0o=sMcs;o0zo*ee=4=4u<44=*=4*:Kb4&qs=o",
"O*4*&:cK=====-=5t45=5==4*Og4O*4zb4*O4zO*e==;=4==p=======Mb=&=4*+",
"O*;:&:cG=<===*5<u===<=-:*Ob4O*0sse&+4jO*;;=4=4uu4<*-===4AbuO=4*o",
"o+4=&=fA=====*::ww:=e==:=oceO&;04-*Opjo*:==t=:ee4=======Ap=@*=*O",
"X*4;&*aK======::ww:=:=*:=Ofe+&-;;;&O5p@=:*=:=<we==*=====Dp=&=4&X",
"o+0*+=sA*==*=*::<=4=:**:=Ou4++*;;-&O5s+=:**:=:==<=*=*==*Aj:+q;&o",
"OO00+=pM@:=*=*::=*===**=*O44+&*q0&&+45+*=**==:==e<&=&=<&cp*Oqq+O",
"O+*0O*sM&<=&**===*===***&O44OO&00&#+44o&***==**===*=&=<&bp*Oq;+O",
"oO00O*fbO=&@&&&&*&&&@&&@+o=4O&&04+#O::oO@@@@*&@**&&&O**Obs=+q;Oo",
"oO00O;sbO@OO&O@&+OO+OOoOoo;=o@&40&#o=:ooOOOO++++&OOOOO&Ocs*O0*oX",
"XO*0O*sjO$@O@@O@$$&&@&++oO4=o&&40&#o=:OOOO@@&&+&O&&@O@&Obp*O00OX",
"XO5gX*;:&*@&*@@*&*&&&&@&$&**O%&;4%+O&*&&$$&&&&*&#@@*##*&4=;op4OX",
"XO5fO**;=*=***@**&*&*&+$&&&$O%*-;&+O$&%&$$&&&*&&#=**==***@*ofuoX",
"Xo40O***===<====*&****%$$$&$o%**-&#O+&$&$&******==*=;;;-***Og5$X",
"X$4eo@*#&&&*@@@@&*&%&&$$++$+O$$**#%O@+++$$&$&&*&@@@@*#&&&*&o;=$X",
"XO-;Xo@OOoooXooo.ooXXXX.XXooo%%--%%oooooXXXXoooooXoXXoo+OOoX;;+X",
"o*-q*9*-&&%%*@OOO%%%%%%%$$O$%%-****%+OO$%$%%%+O+@@+**%+*---*q9$o",
"XoO+*%+&&%&&&&@O%$$o%$O%$$OO$oo$ooo$OO$$++OOO++++#&&&+*O+*%%+OOo",
"8888888889988999888888988999899999888988888888898999888888888888"
};
