/* XPM */
static char *_8223a3edf174463d8ed2fffdb44bc89vwhqzupHtHjsyKYE[] = {
/* columns rows colors chars-per-pixel */
"64 64 170 2 ",
"   c #060505",
".  c #080506",
"X  c #070708",
"o  c #0B0708",
"O  c #0C090A",
"+  c #160706",
"@  c #190706",
"#  c #140806",
"$  c #1A0807",
"%  c #120C0D",
"&  c #1B0D0D",
"*  c #1C100F",
"=  c #140E10",
"-  c #1B1215",
";  c #1F1518",
":  c #350F0B",
">  c #3B0F0B",
",  c #23120C",
"<  c #2B140C",
"1  c #34120C",
"2  c #3D120C",
"3  c #361A0E",
"4  c #3C190E",
"5  c #241614",
"6  c #2A1711",
"7  c #271A13",
"8  c #2C1B14",
"9  c #21171A",
"0  c #251A1C",
"q  c #291D1D",
"w  c #351612",
"e  c #3D1611",
"r  c #331C11",
"t  c #3D1B12",
"y  c #2C241D",
"u  c #34251D",
"i  c #2A1F20",
"p  c #2D2223",
"a  c #312526",
"s  c #352A25",
"d  c #392B25",
"f  c #342729",
"g  c #36292A",
"h  c #3A2C2C",
"j  c #3C312E",
"k  c #3B2F31",
"l  c #3D3132",
"z  c #420F0C",
"x  c #480F0C",
"c  c #510E0C",
"v  c #5B0E0F",
"b  c #44130D",
"n  c #4B130E",
"m  c #43190F",
"M  c #4C190F",
"N  c #54130E",
"B  c #5D130F",
"V  c #54180F",
"C  c #5D0F10",
"Z  c #451710",
"A  c #4B1510",
"S  c #441B12",
"D  c #4C1B12",
"F  c #571510",
"G  c #5E1510",
"H  c #531D12",
"J  c #5C1B12",
"K  c #521D18",
"L  c #621611",
"P  c #691713",
"I  c #651913",
"U  c #6B1C15",
"Y  c #6D1F18",
"T  c #711E16",
"R  c #711F18",
"E  c #442113",
"W  c #4C2211",
"Q  c #4C221A",
"!  c #4F281F",
"~  c #522414",
"^  c #5B2215",
"/  c #483613",
"(  c #6C2116",
")  c #692D15",
"_  c #612719",
"`  c #6E2118",
"'  c #6D281B",
"]  c #712017",
"[  c #74231A",
"{  c #79261A",
"}  c #79261B",
"|  c #79271C",
" . c #772A1D",
".. c #7A291D",
"X. c #7D291D",
"o. c #7D2A1D",
"O. c #7D2A1E",
"+. c #7F2B1E",
"@. c #7F2C1F",
"#. c #452B27",
"$. c #4E2B25",
"%. c #422F2B",
"&. c #512720",
"*. c #592421",
"=. c #552A25",
"-. c #582F29",
";. c #44342C",
":. c #4B322B",
">. c #54302B",
",. c #443433",
"<. c #483737",
"1. c #433934",
"2. c #4B3A37",
"3. c #423739",
"4. c #493738",
"5. c #473B3C",
"6. c #4C3C3B",
"7. c #513E3D",
"8. c #7E2C20",
"9. c #544C18",
"0. c #754F1B",
"q. c #76511B",
"w. c #4F423E",
"e. c #54433D",
"r. c #4C3F40",
"t. c #4E4040",
"y. c #4A4C4C",
"u. c #4E4D4D",
"i. c #534443",
"p. c #594645",
"a. c #5A4A47",
"s. c #504D4D",
"d. c #5A4B4A",
"f. c #5E504D",
"g. c #604F4D",
"h. c #645351",
"j. c #695755",
"k. c #6B5957",
"l. c #7D5653",
"z. c #725F5B",
"x. c #75615E",
"c. c #7C6662",
"v. c #7E6965",
"b. c #812C1F",
"n. c #822D1F",
"m. c #832E1F",
"M. c #822D20",
"N. c #832E21",
"B. c #842E20",
"V. c #853122",
"C. c #883222",
"Z. c #8A3425",
"A. c #8E3726",
"S. c #8C3728",
"D. c #903927",
"F. c #933C2B",
"G. c #983F2E",
"H. c #97402E",
"J. c #99402F",
"K. c #9B4331",
"L. c #845654",
"P. c #8B5856",
"I. c #8C5956",
"U. c #8F5B58",
"Y. c #905B57",
"T. c #905B58",
"R. c #915C58",
"E. c #935D59",
"W. c #945E59",
"Q. c #816B67",
/* pixels */
"L.Y.I.Y.R.U.U.U.U.R.R.W.R.T.R.W.T.I.P.P.P.P.P.P.P.g.y.s.u.u.u.s.s.u.u.u.u.u.u.l.T.P.P.P.P.P.P.U.T.R.W.T.P.R.W.R.I.T.R.T.T.U.P.P.",
"N P G P I I U U U U U Y U I I I G G G G L L G G I $   .                       b I G L L L G G G L I I U U Y U U U U I I I L L P ",
"F Y I U U U ` [ ' R Y Y ` U I L I I I I I I I I L &   X o o o   o o o o o .   n U G I I L I I I J L I Y ` Y Y ] [ [ Y U I U Y I ",
"F ] 8.( Y U Y ` Y Y U I J G L I G I I I L I G I L @   X . .   . . . . . .     b U G I L L I I L I I L G I I Y Y Y Y U Y ( [  .U ",
"F [ M.] ..M.U L U Y U L L I U I P L L L L L G L L @                     .     z P G G L G I L L I Y P L L I U Y I L ..M.` 8.8.I ",
"N [ M.[ @.F.] I Y ] ] ] R Y U I I I I G L L L L L @         .           .     b P G L L G L I I I I Y Y R R ] R U I V.A.] 8.+.I ",
"N { M.] +.A...[ +.+.M.M.+.R U I I I I G L L L L G $   .     .   .             z P G L L L L I U I I Y } M.M.M.+...[ Z.C.] ..+.P ",
"N { +.R +.A.M.8.b.b.M.M.M.8.8.R U I I L L L G L G $   .   .   .   .           z I G L I L L I I Y } 8.M.B.M.M.b.M.+.Z.C.]  .+.U ",
"N [ +.[ @.A.b.@.b.b.M.b.B.b.{ [ U U I L L L G L B #         .   .   .         z L B L L G P I U ] } @.b.b.m.b.b.b.+.Z.C.] ..+.U ",
"B [ +.[ +.D.b.b.B.B.B.b.b.b.[ [ Y U U L L I L L B #       .   .   .           z L L L P G U U U ] [ { +.m.B.B.B.b.+.Z.Z.[ { +.U ",
"N +.@.[ @.A.m.b.B.V.m.b.+.+.} T U U Y L L I L L B $       . .     . .         z P L I I L I U I ` [ { b.b.b.B.V.M.b.Z.C.{ ....U ",
"B o.@.[ @.A.m.b.B.M.b.b...@.} ] U I U L L I L L G $   .   .   . .   .         z L L I I L U U I ] [ { @.@.b.m.V.b.m.Z.V.[ { b.] ",
"N b.b.[ o.A.b.+.b.b.+.+.+.+.{ ] U I U I L I L L B $         .     .     .     > I L I I L I U U T [ +.+.+.+.b.b.@.b.Z.C.....b.] ",
"V b.m.{ o.A.V.+.b.b.+.+.+.} } ] U U U L L P L L G +       .   . .   .         z P B I I L I U I Y [ { +.+.+.b.b.+.+.A.B.{ +.m.] ",
"B +.b.{ +.A.V.+.b.+.+.+.+.+.} ] U I U L I I G L B #       .   .   .           z L L P I L I P U U { +.+.+.+.o.+.+.@.Z.V.} ..b.T ",
"N +.+.+.+.Z.b.{ ..+.+.+.{ } } ` U U I L I I G L G #         .   .   .         z P N L I L I U U ` [ { [ o.o.o.o.+...C.V.} b.b.] ",
"F b.+.} +.Z.M.} { +.{ ..{ { { Y P U P L I I G L B @           .   . .         z I G I I L I I U U [ +.{ o.{ +.o.{ +.C.V.{ +.b.Y ",
"v +.B.{ +.C.M.} +...+.+.} { +.T U Y U L I I L L N @         .   .   .   .     > L G L P L I U U U { +.} o.o.+.o.{ ..C.C.[ b.b.Y ",
"N +.b.[ } Z.+.} { +.@.+.b.} } T I I I B I I G L N @       .   .   .           > L L L I L L U I U [ { } +...+...{ +.V.B.[ +.m.U ",
"N } b.[ @.C.+.} +...+.+.{ [ { U P U I L I I B L N #         .   .   .         > L L L I L L U I U [ [ { +...+.+.{ { B.b.] b.m.U ",
"N } V.[ } C.+.} +.{ [ [ Y ] +.8.8.[ ` I P I B L N #       .   .   .           > L C P I I U R } @.+.] ] ] [ } +.} } B.B.] +.M.U ",
"N [ V.[ } C.M.[ ] ` [ } M.Z.A.V...] Y U U I B L J #         .   .   .         > L G L U U U R } 8.A.D.V.8.} Y ` [ } Z.B.] 8.b.P ",
"N { C.] } C.+.( [ ..V.D.H.G.Z.} U I U U U U G L N #   .       .   .     .   . 2 L G L U U U I U ] M.F.H.F.Z.8.} [ [ V.B.` M.M.P ",
"c { Z.[ } A.b.+.S.H.K.G.Z.+.] U U U U U U I B L F #   .   . .   .   .   .     > L G L U U U U U U ` } M.F.G.K.D.M.+.C.V.Y M.V.I ",
"c { Z.] } A.G.G.F.D.V.V.+...Y U Y Y L G U U G G J +         . . .       .     : I G L U L G I Y Y Y } M.B.Z.Z.F.H.H.F.b.] V.V.L ",
"N { S.} } C.F.D.V.+.} ] ` Y U Y Y I P B P I G G N +       .   .   . .         > L G I U L L I U U U U Y ] ] ..V.A.F.A.b.] V.V.L ",
"n } S.[ } +.+.8.} [ ] Y I P I U U I I L U U G L N #         .   .   .   . .   : L L I U L I U U U U L L U Y ] [ } 8.+.b.] V.V.I ",
"x } S.[ 8.M.} ] Y U U Y [ ] ] Y I U U L P U I L N #       .   .   .       . . : L L I U I I U I U Y ] } ] U U Y ] } @.B.] V.V.J ",
"x ] S.[ 8.A.[ U Y ] } 8.+.[ Y P U ` } [ U P P I N #         .         . .     : L P P I ` ..] U P U [ 8.+.} } Y U Y V.Z.] B.V.J ",
"A [ S.[ +.F...` ] +.+.} } ..} 8.V.8.8.} ` ^ W G N #           . . .         . : L ~ W U [ 8.8.M.M.} } } } +...} [ ] Z.Z.` V.V.G ",
"n [ Z.] } D.M.8.V.V.V.M.} [ 8.B.V.8.] Y U 9./ L N #               .   .   .   : L D 9.) U Y } V.V.M.] ..8.B.Z.M.b.b.A.Z.` M.V.J ",
"b ] Z.} +.C.N.V.F.G.K.F.M.] Y U Y U U L L q.' C V +                   .       : L L 0.) C U U U Y Y Y } Z.J.K.F.Z.8.Z.V.] V.M.G ",
"b [ Z.} ..A.G.J.F.Z.B.b.{ [ ( U I U I G N ) U L N .       .   . .   .   .     : G L ( L N I I I I U ] } @.M.V.F.J.G.F.M.] V.M.J ",
"b ] S.[ ..Z.F.D.V.M...+.{ { ] U I L L G v v B L N #         .     .         . > L L B v B L L P P Y ] } ..} +.B.Z.D.F.B.] V.V.J ",
"b [ A.[ +.M.+.[ { ..[ [ [ ] ] P P L L B B L B L N #       .   .           .   : L G G B B L I L I ` ] [ [ [ { [ [ ..8.M.` V.M.J ",
"b } Z.[ ..@.} ] U U I I U ` ] [ Y U Y G P P B L n #   .     .                 : L G L I L I Y Y ] [ ] U I P U Y ] } ..M.] M.M.J ",
"S ..Z...+.V.] U I U U R [ { o.o.Y Y Y L U U B L M #       .   .   .     . .   : B L L U G P Y U [ 8.{ ] [ Y P I I U M.V...V.M.J ",
"Z ] V. .@.A.[ I Y ] } b.b.b.b.{ U U Y L L U B L N #     . . .       . .       : L L L U G I Y I ] +.b.b.M.+.[ ] U U V.V.] M.V.J ",
"S [ Z.} +.A.b.{ 8.} M.B.b.b.o...U U U L I P B L N #     .       .             : G L I U L U U U ] +.+.b.b.Z.b.{ [ 8.S.S.[ V.M.J ",
"S ] Z.] ..A.Z.B.b.@.M.B.b.o.o.] U U P L I P L L n .       .     .             : G B I I L U U U ] } +.b.b.m.+.+.M.M.D.V.` N.M.^ ",
"Z [ Z.[ ..D.Z.8.@.+...@.+.+.o.] U I I I U U G L n #   .   .                   < G L P U L U U U U { o.o...+...+.+.B.A.V.] V.M.J ",
"2 ..Z.[ ..D.C.[ +.+.{ +.+.+...] U P I L L I L L A #   .                       : B B L P L L U L ] [ o...+.+.{ +.} +.A.C.] V.V.H ",
"t ..Z.[ ..D.V.}  .} { @.+...{ [ U U L L I I G L A #   .                       : G G I U L U L U ] [ +.+.@.{ [ +.[ +.A.V.` M.B.J ",
"S ] V.[ +.A.V.[ } } { } +.+.[ ] U U U L U P G L n .   .                       : G G P I L L U U ( { { +.+.{ } +.} +.A.V.] V.M.^ ",
"t ..M.[ +.A.b...} } } } +.@...] U I I I I I L L n #   .     . .               < G L I I U U P U U [ +.b.+.] } } ] +.A.V.] 8.8.^ ",
"S [ 8.[ { A.m.{ } } { } +.[ } ] U I P I I I G L A #     .   .       . . .     : G G L P L L I I ] { { { +.} } } ..8.Z.V.] 8.8.J ",
"E [ @.] [ C.V.{ [ } ] } } ] { [ U U I L P L G L M + o o .         . . . O O . : G L L I L I U U ] { [ [ +.] [ } } +.Z.8.` } ..^ ",
"E [ @.] [ Z.@.} { { [ } +.[ [ ] U U I G L P L B A % O o   . . o . . . . . % % : G B L I G L U U U [ [ { M.[ [ } [ } V.8.Y } 8.^ ",
"4 ` @.` } Z...] [ ..[ ..+.[ ] ] I I P B L I B L M % O % o o . . o   o o O % O < L B L I B B P I U ] ] { 8.] [ ..} } V.@.Y { +.H ",
"3 ` V.] [ Z.8.} } } [ [ ] U P U I I U L I I B L n $ O % % o o o . O o O O = O 1 B B L I I U P I P U U ] [ ] [ } } } V.@.U +...V ",
"3 ( M.` } M.} } ] Y U ] } ..[ ] I U U I L L J L n & O = % % = O O = % O = = % 1 G G L I I U Y I U ] { { ..R U Y [ [ V.M.U 8...H ",
"E ` M.` ` S.} U Y Y [ M.N.V.M.} U I I I L L L L M * = = = = = = = = = = = = = 1 G L G L I I I I ] +.V.Z.M.} R ` Y R V.M.U +.} ~ ",
"t ( M.` [ V.[ ` 8.M.S.C.M.} R U I I I I I B G L b * = = % = = = = = % = % = = 1 J L B L I I I I U ` [ ..B.Z.Z.M...] M.M.U ..{ K ",
"1 ^ 8.] } N.Z.M.V.M.M.+.[ Y U U U U L L L L G B n * = = = = = = = = = = = = = 1 B B G B B L I U U I ` ] } 8.B.M.V.V.V.8.U +.] M ",
"1 I M.' ] 8.C.S.M.8.[ R [ ] U U I L G B B L P L n 5 - ; - = - - - = - - - - - 4 B L I G B L L L I U ] ] ] [ [ M.M.D.M.} ` 8.} b ",
"< U V.` [ 8.} [ R R ] [ ] Y U L L L I P L B G G b q 9 9 - - - - - - - - 9 0 0 3 N G B L L I L L L P ` ] ] ] [ ] ] [ } } Y M.} b ",
"< I V.[ ] [ ] ` U L I U U Y U I P I L L v b t r 5 i 0 9 - - - - - - - - 9 9 q 8 3 r b c B L P I P P U U ` I I I U ] [ [ Y M.} b ",
"< I V.[ T Y ` U U Y ] } [ ] Y P N z 2 E $.$.;.d 0 0 i 0 9 - - - - - - - 9 q q 9 a ;.:.$.Q t b b L U ] [ [ [ ] U U U Y Y Y M...b ",
"< I M.U I ] ` ] } M.V.8.U F D A e 6 y d 2.e.e.,.p p i i 9 9 9 ; 9 ; 9 ; 0 i i i g 2.7.e.;.y 7 w D M n J [ M.B.b.[ ' ] U L ..} b ",
"< _ 8.] [ @.M.M.8.' U J S , 5 a d s g %.2.2.d g g a i i 9 9 9 9 9 9 9 9 0 i a g g d ,.7.,.j d d s 8 * 3 H U ' ..8.V.N.8.` .. .b ",
"< I @.8.b.V.+.' ~ r < r u s h l g g h ,.4.6.h g g g p 0 0 9 9 9 ; ; 9 9 0 0 a g g f ,.6.<.k g g j ;.g d u < < E _ ..b.M.M.b.[ m ",
"r U ] V D ! -.>.;.g p ;.2.2.4.2.g a g ,.2.6.l g g a i i 0 9 9 9 i i 9 9 0 i a g h h 4.6.<.h f f ,.6.4.,.,.g s d :.-.=.Q D I { D ",
"6 S *.$.;.5.i.a.d.p.p.6.6.l ,.,.,.,.4.6.7.7.l k h k p p i i 0 9 ; i i i i i g k h h 4.r.7.4.,.,.,.,.l ,.i.p.p.p.d.a.e.,.#.&.K 3 ",
"y s f.v.v.c.c.c.c.x.z.j.h.w.5.d.h.h.k.z.j.j.i.t.i.t.r.r.r.r.l f k k 3.r.r.r.i.i.i.r.g.j.j.z.h.h.f.i.5.d.j.k.z.x.c.c.c.c.Q.z.1.y "
};
