/* XPM */
static char *d4e758bd727745d1cd322fbdd7bb8f6cr59mQjPhO3wEcaGt[] = {
/* columns rows colors chars-per-pixel */
"64 64 46 1 ",
"  c #233355",
". c #273E70",
"X c #274072",
"o c #2A4274",
"O c #2D467A",
"+ c #2E4A7C",
"@ c #304B7F",
"# c #30507F",
"$ c #334D83",
"% c #335284",
"& c #355987",
"* c #365289",
"= c #38578C",
"- c #355988",
"; c #37598B",
": c #375C8A",
"> c #375C8C",
", c #38588C",
"< c #385E8C",
"1 c #385F8E",
"2 c #3B5E90",
"3 c #38608E",
"4 c #3A6391",
"5 c #3C6393",
"6 c #3B6491",
"7 c #3C6693",
"8 c #3D6394",
"9 c #3C6794",
"0 c #3E6997",
"q c #3F6698",
"w c #3F6998",
"e c #3F6D99",
"r c #406A9A",
"t c #406D9A",
"y c #416F9C",
"u c #42719D",
"i c #43749F",
"p c #44759F",
"a c #4475A0",
"s c #4476A1",
"d c #4779A3",
"f c #4679A4",
"g c #477CA6",
"h c #487CA6",
"j c #487DA7",
"k c #497EA8",
/* pixels */
"oeiwujkkks:Ostwskftwe%;dtgkuwwe0O0pwujkkks1Osywikftwe%&ftfkuwwee",
"o9w>>w60r9&Ou929r9;24+&t:0r8241&o6w1:w60r9&Ot929r9;14+%t:0r9241;",
"o11+o$o$**@O9=***$o$*O%1o$****$XX12@o$o$**$o7=***$o$*O%3o$****$o",
"o11$$$o$**@O9=*@+*$**O%4$*O$***$o12*$$o$**$o7,*@+*$**O%7$*O$***$",
"o3;$$$O@$*@O9=$OO$*$*O%4$$O$*$$$o1,$$$O@$*$o7,$+O$*$*O%7$$O$*$$*",
"o1%.o**o$*@O9=O+@o$o$O%1XX$**@o$o1%.o**o@*$o6=O+$o$o$O%3XX$**$o$",
"XOo.XOOXoOoX+OXooXoXoooO..oOOoXoXOo.XOOXoOoX+OXooXoXoooO..oOOoXO",
"@ooooXOooOOOOOOXoOooOOOoooXoOOOOOooooXOOoOOOOOOoXOooOOOoooXoOoOO",
"de90:Ouw9uddddt%%i00idu007O4ueddde90>Ote9tddddt%%i00udu007O3uedd",
"3122&Ot5=1939q5+%y229q1&11o37;q91122=oe9;1939q5$%y229q2&11O19;9q",
"o$**$o7=O+@o***O#9**$*+o*$o:&O*$o@**$o6,OO$o$**++9**$*@o**o;;O*$",
"$O$*$o7,$*@o***O#9**O$*$**o:1$$o$O@*$o7,$$$o***++9**O@*$**o;3**o",
"$o+*$o6%$$$O$**O#9*$O+$*$*o:1$+O@o+*$o6*$$$O$**++9*$O+$*$$o;1$@O",
"X.+*$o4O.+*$o$*O@7*o$OO$o$o;&.o$oX+*$o4O.O*$o$*O+9*o$OO$o$o;&.o$",
"X.oooXOX.Xoo.ooXoOo.oXXoXo.oo..oX.XooXOX.Xoo.ooXoOo.oXXo.oXoo..o",
"XOOOO++++OoX+OOO+OOOOoo+O++OOOOOXO+OO++++OoXOOOO+OOOOoo+O++OOOOO",
"o0u0tffffu;Oie0ufs000@;sedft0007O0u0tffffu:Oue0ufs000#&sedfy0000",
"o69=&5:495%Ot41594&,1+&0&59211,%o40;&5:495&Ot51494&,1+%w&59411,%",
"o11@O$X$**@O9=*$$$o$*O%1o$$***$oX12@O$X$**$o7=*$$$o$*O%3o$$$**$o",
"o11**$o$**@O9=*+O****O%5**o$***$o12**$o$**$o7,*+O*$**O%9**O@***$",
"o3;+$$++$*@O9=$OO$*@$O%4@+O$*$$$o1;+$$++$*$o7,$+O$*$*O%6@+O$*$$*",
"o1%.o*$o@*@O6=o+@o$o$O%>XX$**@o$o:%.o$*o+*$o4=O+@o$o$O%1XX$**$o$",
"Xoo.Xoo.ooXXOo.Xo.o.oXoo..oooo.o.oo..oo.XooXOoXXo.o.oXoo..oooo.o",
"%+++OX@+++%%%%+oo#++#%@++OXO++%%%+++OX@+++%%%%+oo#++@%++++XO++%%",
"jt001Oit0ugfffy%&s00sgi009O6itffft001Out0ugfffu%%sw0sjs000O4stff",
";;,,*Ow2%;1;451+%t,,28;%,,o33&54&;,,&o04%&1;452@#t1,28;%,,O:4%55",
"o@$*$o7=O+@o$**O@9**$$@O*$o:&O*$o@$*$o6,O+$o$**++9**$$@O**o;;O$$",
"*o@*$o7,**@o***O@9**O@****o:2*$o$O+*$o7,**$o***++9**O+****o;2*$o",
"@X+*$o6%+$$++**O#9*+++$$+$o:;++++o+*$o6%O$$++$*++9*+++$$+$o;1+++",
"X.+*$o4O.O*$o$*O+4$o$OO$o$o;&.o$o.+*$o3O.O*$o$*O+4*o$OO$o$o&&.o$",
"X.XoX.oX.Xoo.ooXXoo.XXXX.X.oo..o..XoX.oX..oo.XoXXoo.XXXX.X.oo..o",
"X@%@%&&&&%Oo%@@%&%@@@oO%@%&%@@@+o+%@$%&&&%Oo%@@%&%@@@oO%@%&%@@@+",
"oeu0tfffgs;Ost0ujs00w@;seffu0ww9O0u0tfffgs>Ost0ugdw0w%&deffu0w00",
"o48%%,%,2,%Ow1,,2,+=,O%7+12,,,=OX39%$,%,21%O02,,2,+=,+%9@,2,,,=+",
"o11$O$X$**@O9=*$$$O$*O%3O$$$**$oX12$O$X$**$o7=*$$$O$*O%3O$$$**$o",
"o31**$o$**@O9=*OO****O%7**o@***$o12**$o$**$o7,*+O****O%9**o@****",
"o3&O@*@O$*@O9=@+++$+$O%4OO+$*$+$o1;O+*@O$*$o9,@+++*+$O%4+O+$*$+*",
"X:@.o$$o+$+o4*oO+o$o@O%;XX$$$+o$o;%.o$$o+$@o3*oO@o$o@O+:X.$$$@o$",
"XoX..oX.XXX.oX.XX.X.X.Xo..XoXX.X.XX..oX.XoX.oX.XX.X.X.Xo..XoXX.X",
";%%%+o%%%&;;;;%oO&%%&;&%%%o@&%;;;%%%+o%%%%;;;;%OO&%%&;&%%%o+&%;;",
"jt0w1Ost0uffffu%&dwwsju009O7itffft0w3Out0uffffu%%dw0sjs000O6stff",
"#=,,%O01+%=%,,,+%w,,,1%+==o>:$,,%&,,%o02$%=%,,,++w,=,1&+==o:>+,1",
"O+$*$o7=+@@o$**O#9**$$$O*$o:;+$$O+$*$o6,++$o$**++9**$$$O**o;;O$$",
"*o+*$o7=**@o***O#9**o@****o:2*$o$O+*$o6,**$o$**++9**O+****o;4*$o",
"OX+*$o6$O$$@O$*O#9*O++$$+$o:;OO@OX+*$o6$O$$@O$*++9*+++@$+$o;;OO@",
"X.+$@o>O.O$$X$$O+1$X@OO+o$o&%.o$o.O$@o1O.O$$o$$OO1$o@OO@o$o&%.o$",
"X..XX.X...XX.XX.XXX.XX...X.XX..X...XX.X...XX.XX..XX.XX.X.X.XX..X",
"X&;%&:::1;+o;&%;1:%%%O+;&:1;%%%%o%;%&:::1;+o;&%;>:&%%OO;&::;%%%%",
"oeu0tffffu;Ost0ufs000$;swffy0006O0u0effffi:Ost0ufs000%&swdfu0000",
"o45$+=+=,,$O0,=,,=O*=O%4O=,,==*OX35$+=+=,,$O0,=,,=O*=+%6O=,,==*O",
"o11$+$X$**@O9=*$$$O$*O%3O$$$**$OX12$+$o$**$o7=*$$$O$*O%4O$$$**$O",
"o11**$o$**@O9=*OO****O%7*$o@***$o11**$o$**$o7,*+O****O%9**o@****",
"o3&oO*$O$*@O9=+++O$O$O%3OO@$*$O$o1&oO*$O$*$o9,+++O$O$O%4Oo@$*$O*",
"X;+.o$$o+$+o1*oO+o$X@O+;XX$$$+o$o;@.o$$oO$+o>*oO+o$X+O+;X.@$$+o$",
"XXX..XX..X..XX........XX..XXX....XX..XX..X..XX........XX..XX...X",
"7;&;%o:;&:4443;O+3;;341;;&o&>;443;&;%o:;&:4444:OO3;;141;;&o%1;34",
"st001Oit9yfsfft%&s00sfu909O7ueffst001Out9tdsfft%%s00sfu909O4uwff",
"O*==$o9,+$*O===+%0===,$O=*o:;+==O%==$o9,+@*O===++0===,$O=*o;;O==",
"@+$*$o7=@$@o$**O@9**$$$+**o:;@$@O+$*$o6,@$$o$**++9**$$$+**o;;+$@",
"*o@*$o7=**$o$**O@9*$o+****o:2*$o$o+*$o6=**$o$**++9**O+****o;4*$o",
"oX@*$o6+o@*$O$*O#9*O@O+$O$o:;oO$OX+*$o6@o+*$O$*++9*O@++$O$o;;oO$",
"X.O$+o;o.O$@X@$OO;$X+OO+o@o%%.o@X.O$+o;O.O$@X+$OO;$o+Oo+X+o%%.X$",
"X.....X..........X.........XX.........X..........XX........XX..X",
"                                                                "
};
