/* XPM */
static char *ff140e943e3b46ef8b284b99813fc253pzik2VFBgSveqAIL[] = {
/* columns rows colors chars-per-pixel */
"64 64 83 1 ",
"  c #141636",
". c #15174E",
"X c #15184F",
"o c #161953",
"O c #181B55",
"+ c #191D5B",
"@ c #1A205D",
"# c #1B1E64",
"$ c #1D1F69",
"% c #1C2364",
"& c #1E216C",
"* c #1F296D",
"= c #1F2471",
"- c #1F2970",
"; c #20236D",
": c #202A6F",
"> c #202674",
", c #212B74",
"< c #232D7B",
"1 c #243075",
"2 c #24317C",
"3 c #24337D",
"4 c #24307E",
"5 c #24337E",
"6 c #26347D",
"7 c #242E80",
"8 c #242F81",
"9 c #243180",
"0 c #253283",
"q c #273783",
"w c #253184",
"e c #253284",
"r c #263386",
"t c #263585",
"y c #273785",
"u c #273586",
"i c #263487",
"p c #263587",
"a c #273589",
"s c #273789",
"d c #27378A",
"f c #283589",
"g c #28368B",
"h c #28378C",
"j c #27388B",
"k c #283888",
"l c #28388B",
"z c #2A398C",
"x c #29398F",
"c c #293B8F",
"v c #2A3D8E",
"b c #2A3A90",
"n c #2B3B90",
"m c #2A3B91",
"M c #2A3C90",
"N c #2B3D95",
"B c #2B3E94",
"V c #2B3E95",
"C c #2C3E96",
"Z c #2C3F96",
"A c #2C4195",
"S c #2C4097",
"D c #2D4298",
"F c #2E439B",
"G c #2E449B",
"H c #2E449C",
"J c #2F459E",
"K c #30459F",
"L c #30479F",
"P c #2F47A0",
"I c #3047A1",
"U c #3048A1",
"Y c #3149A1",
"T c #3149A2",
"R c #3148A3",
"E c #334BA2",
"W c #3249A4",
"Q c #324AA5",
"! c #334BA7",
"~ c #334CA8",
"^ c #344CA8",
"/ c #344DA9",
"( c #344EAB",
/* pixels */
"OADzA////J<@UbzP(QMbM&1QN~~Dzbxd+vUjN~((~U<%JNjJ(Qbjj&1UM/~DzMbb",
"Okz<<jyzMd&%Dy7dzd,<<#*M-ckj777=oyb-<jyzbd=+Se9eMj,77%*A<jbr77<-",
"O4<#O$O#&$#+d=&&$#o$&+&4O&&&=$$Xo4<#o$O#&=%oe==&&$+$&+&4O#&&=$&o",
"O<<$$$o$==#+d=$##&$&=+&e$&+#=$=#o4<&&&O#=&#+j==##$$&&@%y&&+#==$&",
"O4,##&++&=#+d=$++%&$&+&9$#+#=$$$+0-#$$+#&&#+h=$++#&$&+&0$#+#=$$=",
"O4*.O&&O#&+@a=+##O&o#+*4oo#&$#O%O-*Xo$$+#&#+y=o+#o#O#+%4oX#&$#o$",
"o@OXo+OXO+oo%+.ooXOXooo@.XO++OoOo@+.X++Xo+oo%+ooOX+XoX+@XXO++o.o",
"@@O+OX++O+@++++oo@+o@@@+O+oO+++@@+O+OX++O++%++@oo+O++@++++oO+++#",
"~Ndh-@ZxdMUUUUM%*GjjJQDhjj+qDbUQJvdd4@DdjDPPJIb&&HddHQAhyr%4DMUU",
"4-77-@Ma-<y4hzr%&N<<jj7=<*O0y<gh34<<&+v0-<j4dda$%N77az0-7<+9d-hj",
"O%&&&+y=++#o$=&+&r=&%$#+&&O<=+$$o#&=#+d-++%o$$$#%r=$$$#o&&o--+&&",
"&+#&#oy-&&#o$=$+%y=&+#$$=&o,<&$O#+#&#+d-$$%o=$=+%d==+#&$&&+-<$$O",
"%o+=#+r&#$#+#$=#&0&%++#&#$o-<##+#o#$$+0&#$$+#$=+%9=#++$$#&+-<##+",
"XX#&%O0@.#$#o$$+%r&o#++#O&O<*.o#o.+&#O0@.+&#o$&+%r&o#++#O%O--oo$",
"oooooX+..oOO.+ooo@ooOoooXoo++XooX.o+oo+X..oOoOooo+oooooo.OX++o.O",
"o@#++%%%%#Oo%++#%%@++oO%+%%@@+++o+@+@%%%%#+o%++%%%@+@oo%+%%@++++",
"ovZgMUQQQD<@JzhN~Pzjj%,PbUQNjdd0@hNdvQQQQH-@JNhNQPdjd&*JvIQNddhd",
"Oqy>,04yd7&@M977h7=<<#*z*0d7<<<&oyj=-r49dr-+b7<7d0*<<%*v*rd<<<<&",
"O2<#+#X#&=+@j==$$$+$&+*<+$&$$$$oX4<#+#o#$=#+d==$$$O$&+&4+#&$&&&o",
"O4<&&&o#&&#+y==++$$$&+&r&$+#===$o47&$&o$=$#+d=$#+&$&&@%0&&+#=&&&",
"o4-+#$##&&#+j=#++#&%&+%9#++$&$#&o2*##&++$=#+y*%+##&#$+*0##+%=$#$",
"O4&.o$$o%&#+0=O+#O%o#+&4oX#&$#o%O<&.o&&o#$#+r&++#o$o#+%4o.#&$#+$",
"o@O..OO.oOXX+OXoXXoXXXo@..oO+XXoX@oXXooXoO..@oooXooXXXoO..oOoo.o",
"*@@%+o%%@@**%&%O+%%@%*%@@%o@%%*%*%@@@o%%%%%&*%%+O%%@%&%%@%o@%@*&",
"Uvkz<@GMjG/~!!N&*UjjP~Jdbd+jGNQ~UDhb<+DNjDQ~~~N&&PbzP~Jjdd+qJv~~",
",1<<&+v<&-4-77<#*j<<<r-&<=+49-r4,*<<=+z9&=4-99<#%b<<7r-&><+4q&00",
"O#&&#+d,++#o$=$+%0=$$$#+&&O,-#&#o#&##Or-+##o&&&+%y&$$&#+$$+-,+&#",
"&O#>#+0*&&#O&=&+%d==+#$$&&O,-&&o%++=$+d=$&$o&&&#%d=$+#$$=$+-<&$O",
"+O#&#+y&+%$$+$&+&r&#++#$#&O4*#+#+o%&#or&+%$+#&&+%r&#++#$#&O-<++#",
"o.+&#o4+.+&%o$&+%4&o#++#o$O-*Xo#oX+&#+<@.+&$o#$+%7&o#++#o%O-=.o&",
"o.oOo.Oo.ooo.oO.oOooXoXoXoXooXXoo.Xooooo..oo.ooooOo.ooXX.oXoo..o",
"o%%%&:***&+o&%%***%%%o+*%**&%%%%o%*%%-**-%@o*&%**&%%%++*%**&%%%%",
"obAdM~QQ(D,%PzzD~Pzbd%,PbQ(NMzjr+vDjN~~~(P-%JbzPQPxhj&*PvUQNjbhh",
"Ord&&<&<<<&+h<<<7-&=-@*y&<7==-=#o4r&&---7==+M<=-7<&=<+*j%<<<<==%",
"O4<#+%o#&=#+d=&$$$o$=+*4+&$$==$Oo2-#+#o&$=#+d==$$$+#&+&<+&#$$=&+",
"O4<$&&o$$=#+r>=++==$=+&d=$o#===$o29=&&o#=$#Or==#+$=$&@%y&&+#=$=$",
"O4,+#$#+$=#+k>#++#$+&+%r++#$&$+$o4-+#$#+%=#+d=#+#+$+$+&r+++%=$#$",
"O,%XO%#O#$++4&o+#o#o%O%-.X#$$#O#o1%.o$$o+&#+4=O+#o%o#+%<oo#&$#o$",
"Xoo.XoX.XoooOo..X.o.oXoo.Xooo..ooooXoooooXXXOoXoo.o..oooo.oo.o.o",
"1*&%%o**&&,,,,;+@-&&-1*%&&o%**,,**%&%o*&%*1,,,&++*&*--*%%&o%*&,-",
"UAgh<+IngD^QU/N$*UjxI~HhMd+yJMQQ~Njj<+GMjA~~QQZ&&PzgU/Dgkj+yJM~~",
";:>>&+z<%&,&<<<+&z<=<<&#=&+<4%<<%-=<&+j<%&,%<<<#%h<<<<&#>>+<<%<<",
"O+;>#+y>+##O$$>+%y&&#$#+&&+--+&#o+&&#+r<+##O$==+%y&$#$#+&&O,,+$#",
":O#%#+y>&$#o$;;+%j=&+#&&=&+<7&$O&++=#+0-$&#O$=$+%d=$+#=$&&+-7&$o",
"+o#&#oy%o#&++&&+%h&+#+#$+%O--o+#+o#&$+0%+#$#+$&+%j&+++#$+&O,<++#",
"XX+&++<+.+&#X#&@%<#o+++#o%o-&.o#oo+%#o1+.+$#o#&++<#O#+O#o#O:&Xo#",
"OXoXXXoo.XXo...X.o...o..XXXooXoo.oXoXXoX.Xoo.oXoXoo.oXXXXXXXo..X",
"O*1**14<3,%O,,;,4<::*+%,*44-***$o&-*-222<,%O,-*-44-&*@@1*23,&***",
"OAAyzQUQQD<+IbhAUPhhh%,JzU!Nzbdr+jDdzQQQ~P-+PNgHULkzz&,UvUUNhzhh",
"O37%#>%><<#+z<=<<=+>>+&y%=<*===+o<r$%=%=--&+g<==<=+=>+&q%=<>>==+",
"O<<$$#O#$=#+d=$$#$#$=+&9+$%$$=&oo47#+&o#==#+r==$&&+&&+&0+$#$=$&+",
"O<<&&%o#$=#+a==++=$$$+&y=$+#=&&&o47$&$o#&=#+d=$++&&&&+%0&&O#==&&",
"O4;O+&#+#&#@a=+#++&+%+&4o+#&&#+$o4*O+&%+$&$+y-#+++%+$+%0+O#$=#+$",
"O,%Xo%%o+&+O<&O++o#o#O%,oo####o#O-%Xo%$O##++<&O+#o#o++%,o.#%##o#",
"OoXXooXoooXXo...XXXXoXoo..oooXX.XooX.XoOoo..o....ooXo..o..oX.o..",
"q,,,%O2,--qq4y<+%2,,2q<,=-O*4,qq5<--&O2---00qq,$+2-,<q2,--O*4,00",
"Ubhd<+JbjAUQUUZ%&LjkUQNjhy@yDbUUUMhd<+DbdMULUUN$&IguKQAgjd+qDvQU",
"@&==%+d<#%&#=,>+&a===>%+=&o<<+,=@&==&+y<+#&%>,>+%g>>>>&+&=+,<+>>",
"++#=#Or=+##o$==+%d=$####&&O<,#&#++&=#+y=$##O&;$+%y>$$#$+&&+,,#&#",
";+#&#+y>&&#O$=$+%d=$+#&&&&O<<$#o%O###o8<&$#o$&>#%y;&++$;&&O,<&#o",
"Oo#;#+r#o#$#+$=+%d$+#++&+$o,*O+#+X#&#or%o#;#+$&+%d&+#+##+&O,,o+#",
"oo+#+o,+.+$#.##+%,#O+o++o#+&%.o#XX+%#+&+.o##o##++,#o+Oo#o+o&&oo#",
"o.o.o.o.........oX..oXXXXXXX.X.o..XXXXOO..o...XXXXoXXXXXXXXXXXXX",
"                                                                "
};
