/* XPM */
static char *_0b5dda0034c45a9841e74b251a99e910PF6OveiXsYtF3oC[] = {
/* columns rows colors chars-per-pixel */
"64 64 92 1 ",
"  c #1C0A45",
". c #2A1365",
"X c #2D156A",
"o c #2E196D",
"O c #30176F",
"+ c #30186F",
"@ c #2F1B70",
"# c #301770",
"$ c #321B73",
"% c #361D7A",
"& c #381F7D",
"* c #332176",
"= c #36247B",
"- c #39217F",
"; c #37297E",
": c #38287E",
"> c #3A1F80",
", c #3B2282",
"< c #372A80",
"1 c #3A2B84",
"2 c #3E2788",
"3 c #3E2B89",
"4 c #3B3186",
"5 c #3E328B",
"6 c #412E8D",
"7 c #40328E",
"8 c #422F90",
"9 c #433392",
"0 c #413490",
"q c #413491",
"w c #423491",
"e c #403790",
"r c #443594",
"t c #443696",
"y c #453796",
"u c #403A91",
"i c #423A92",
"p c #433B95",
"a c #433A96",
"s c #453996",
"d c #443C97",
"f c #443D97",
"g c #453898",
"h c #463998",
"j c #463A99",
"k c #463A9A",
"l c #453C99",
"z c #473C9A",
"x c #473C9B",
"c c #463E9A",
"v c #473E9B",
"b c #483E9D",
"n c #493F9D",
"m c #493F9F",
"M c #45429A",
"N c #45429B",
"B c #47449E",
"V c #48409E",
"C c #49439F",
"Z c #4940A0",
"A c #4A40A0",
"S c #4942A0",
"D c #4844A0",
"F c #4B44A3",
"G c #4B45A3",
"H c #4946A2",
"J c #4B45A4",
"K c #4C46A5",
"L c #4948A1",
"P c #4A49A3",
"I c #4D49A7",
"U c #4C4AA6",
"Y c #4C4BA6",
"T c #4C4CA7",
"R c #4D4AA8",
"E c #4D4BA8",
"W c #4E4CA8",
"Q c #4E4DAA",
"! c #4D4FAA",
"~ c #4E4EAB",
"^ c #4E51AB",
"/ c #4F51AC",
"( c #4F52AD",
") c #5051AD",
"_ c #5053AC",
"` c #5054AF",
"' c #5055B0",
"] c #5155B0",
"[ c #5156B1",
"{ c #5257B2",
"} c #5258B2",
"| c #5258B3",
/* pixels */
"XBUnG`}}{Q5$^GVQ}/ZZG=4/D}}GVZZj$VQZJ`}{{Q5@/JZR|/ZZZ,1(G(|RZnAA",
"XMv67MivVj1$Gs7jVj30t$1G3Vba0581XaZ37vivSg2@Dj5jmj30r$;B5Vnrqq81",
"X06$O%.%,,$+j2,&>%X&,#-5X&,,,,&..77$O&.%,,%oj2>>,%o%,o=0X&,,,,&o",
"X76,--.-,,%$j2,%$>&,,o=g&>o%,,,%X56,%-X%,,%@a3,%$,%,,$=a--o%>>>&",
"X74$--O$-,$*j2%#$%,%,#;t%%$%>,-&X73%&-O$,,%oj2%$$%>%>$=a=%#%,>&,",
"o7;.O--X$2$oj2o$$o&X%#;5X.%,,$X-X5<.X,>O$,%Xj2X$%X&X%#-qX.%,,%o&",
".@+..OO.X#X.$O.XX.X.XXo$..XoXX.X.$o.X+O.ooo.$$.XX.XXX.X*..o@#X.X",
"*oo+O.++o$o*$$$.X$ooo$$@oo.o$@$$*oooX.o+oo$$@@oXX@@X$$ooOX.ooo#$",
"/Zjj5@PVjG///^S=;TbjQ/Tgvs@aPD/~^Vvj7oPZjJ////G;;RnjT~Tbjs@5QV^^",
"q08q1@Dt15i7jvt$;Z08jv33q5o5a3jj57t51ons15v5jjt%=Zqrjn7180$7a5fv",
"X%>,%Xa2o$$X>>,$=h,,&>$o>>X52o>&X%&,%Xt3X$%X>>>$$j,,&>$X>>X13X,&",
"-o%>%@a3>,%X>,,#=j,,o%>&,,X38=&X%#%>%ot3&-%X>,,#=j,>$$,&,>X37--X",
"*o$>%oa,$&%@$,,#*j,$#$%=%&X35$$$$X$,%$i,%%%#%>,$*j,&$$%>%&o16$$$",
"..$,%ot@.$,=X&,#=a-X%#$%X&X51.X&X.$,%oi*.$,=X%,$*r,X$@#%X&o43.X&",
"X.##X.@..XoX.Xo.o@X.X..o.o.oo..o...XX.$...XX.XX..$X.XX.X.X.oo..X",
"X@@#@****$oX$$$$**$@$Xo*@**$o$$$.$$$$***$*oX*@$***@$ooX*$**$@@o$",
"XMPvV(__)U6*UBvU)QVvn=1Ub//GVjbtofPvZ///QT5$TZnZ'^bvV=:/V))Jvnnj",
".Ms61i7rhq&$V76qs0,67$1M1ts0833=Xag23i50ji,$Vt6tai133$:V10s0685,",
".i3$+%.%,,*+v,,&-%O&,+-7X&&>,,-X.58%X=X%,,%os3>>,%X%,$=0X-&,,,&X",
"o06,--.-3,$$j6,$$,&>,+:s,,X%,,,&o56,,&X%,,%os2,$$,&,,$=s,,O$>,,-",
".76+%-$$%,%+s2$$$%,$-O-i$$$%,&$-oq1$$,$$&,%oj3%#$$-$&$=0$$$%,&$,",
".7=.X-&X%,$+r2O$$X&.$$-7..%,,%X%X5:.X,,X$,%@t2X$%X-X%#-7X.%,,%X&",
".++..XX.....+X.XX...X.Xo..XXXX.X.oX..XX..XX.oX....X.X.Xo..XXXX.X",
":*$*+X***==:==*+X=**==****.$**===*$$$.*=$*=====Xo=$$*==**$.$**=-",
"}BvV7@QVVC__)`J-:^nn~{Rbnj$iUJ){{GxAq#TGjF{//'J<;~nnQ(Tbbv$iTD/'",
"4166-+B0-6e4rr7$;V830r3=62o501r01366,#b0<2q20i8&=Z860t3-61o5i,0i",
"O$-,%+06$$$X&>,O=r,>&&$X>-X52X,%X$>,%os3@$%X>>,#*j,,,&%X&>X33X,-",
",O$,%+r6--$X&,,O=j,,O%,-,>X50,%X=o$>%Xs2%,%X,,,$*j,,o$>>,>X30,&X",
"$X$,&+s=$--$$&,$=j,$$$%-$,X53$$$$X$,%os-$%%$$&>$=j,$$$%>%=o13@$$",
"..$-%oi+.O-*X&-+=r%X%#$%X%X11.X%..$-%o7$.o,%X%>$$t-X%$X%.%X23.X&",
"...X..o...OX.....XX......X.XX..X...o..X...X..XX..XX......XXXX...",
"+*:*=::::=+X=-=:1;*=%X$;=;;=*=*$o*===<;<;;$X==*;;;===X@;=<<=*$==",
"oZRnP(){{T3*QZnQ}~bnb=1/Z'{JAnnjoMUnZ{''{U3*UGZJ}/Znn,1^Z/`JAAnj",
"X0r,=5,655-On66603$33$1s=383231$X5s,=3;376,@b53383*26$;a=3q6322%",
"o76$o%.%,>%$j2>&&%o>,o;0#>>>>,&Xo50%#%X%,,%oj2>>&&#%,#=0o&%&,>=X",
"o76,,&X%,,$@j2>#$,>,,o-j,>X%,>,&X58>,&X%,,%+a2,$#,>,,#=j,,$$,,,,",
".01@$,$$&,%$f1$$$$>$-o<5$@$&,&$&o52#$,$$%,%+j2$$$$>$&#;0$$$%,%%>",
"X4=.X--X$>$o0,#$$X%X%o-3..%&-$X%X1;.X&&X$-$oq2X@$X%.%#*3..%=>%X%",
".X..........o..............X.....X...XX..X..XX.........X...XX...",
"4:==$X1;;11114,$@1=,<12==;X*1;111==;$X;;=;4111,#$1=;111===X*<<11",
")Vsv6+QGnJ{//'Z=<QAb~{Txbj$aRJ/{/ZVV5@TZVJ'/{`J<;~ZbQ'Tbbj$5/G('",
"=166&+v7%=2=356$;b3366>%12X55=66=163,oj0%;1=353%=n2335,%22o55-33",
"+$&,$Os6$%%X,,,#=g,>>>$$>>X53#>$#$&>%or3$$%X>>>$*j2>%,%@>>X33$,%",
":+%,%Oj,>,$X>,,#*g,,o$,,,,X47,&X&#$>&or2&,%X>,,$=j,,X$,,,>X30,%X",
"+X$,%+s=o%>$$&>$=j,##$$&$=X53o$$#X$,&Xa;#%,$$%,$$x,$$$%%$%X33@$$",
"..$-$O7+.@%%.%&o$5%.%##$.%X2=.X%X.$=%X5@.#%%.%%$*5%o$@X%X%o<<..&",
"X..........X....XX...XX.....X.............X......X..............",
"X;1;455551*o11;4551<<o$3<552<;,<X:1-255551*o31<1511>3@@41412<<<2",
"oMUvV`_``U6$QCMR'Qbbb-1/V/|GxnnroVTnV///(J5$QGnJ//bVn=1QV//Jnnjj",
"Xi5-O6$166-+M3,632$,2@-t$13322,@X5t%*2%133-on32231$12$;t$162221$",
"O77%$&X%&6#+r6&&%&$>-o<q$&&&,,&X.58%$%X%,,%oa2>&%>#&,#=0$&%>,,&#",
"X76&-%X%>>%Or6&$X,,>,o=h>>X$,,,-o58,,>X%,,%oj2,$X,>>>$=a,,X$>,>>",
".0:X+-%o%,*os6O#$@,o%$=q#o%&>&o>X52o$&%#-&%$a3$$%#=#%$=a$@$,,&#>",
"X1*.X--.$-$o6,O$$X%.$X-1..$&&$X%X1-.X%%X$&$X5,X#$X%X$#*3..$&>$X&",
"..........X.....X......o.................X..X...................",
"M6:6=Xi4175i5i6+*5135i5311o151aq5511;o543550a54$$5315a5221o;53a5",
"/Zvb5$QZjG/)_QG-1RnnR)FjjroaJZ/~~Zvj0$TGjG/^//G,=~nnR/Gjjj$iUV//",
"$>22=ov3$%,$12,$=j2,23%$23X53$32$,22&Xj3$%,$132$=j2,23-$,2o53$13",
"$$>>%Xj2$%$.&,,$=h,,%&%$,&X53$&$$$=,%ot3$%%X>,,$*j2,%%&$,>X13$,$",
"-X$,%os3,,%o&,,$=j,,o$>>,,X5q,&X%X$-%ot3&,%X&>>$*j,>o$,>-&X3t&&X",
"o.%,%Xs$O$>%O&,$=s,X%$$%o&X51oo%o.$,%oj%X$>%O&,$-j,o$$$&#>X33XX%",
"..#%$X3o.O%$.$%O*3$X$Xo$X$X,$.o$..$%$X3o.X%$X$%@$3%.$XX$X$X;=..%",
"X...............................................................",
"                                                                "
};
