/* XPM */
static char *_b8d85e991a1433ddbc5bf93c9e52ec2eT9kAZRFNO8fDMsq[] = {
/* columns rows colors chars-per-pixel */
"64 64 148 2 ",
"   c #171546",
".  c #181741",
"X  c #1B1A44",
"o  c #18154E",
"O  c #171C4B",
"+  c #1B1C4D",
"@  c #161950",
"#  c #1C1E54",
"$  c #1E1F5A",
"%  c #201E4E",
"&  c #211E53",
"*  c #201F58",
"=  c #1D224E",
"-  c #1E2154",
";  c #1F2159",
":  c #24234E",
">  c #222455",
",  c #282752",
"<  c #252956",
"1  c #2A2955",
"2  c #24255B",
"3  c #29265B",
"4  c #26295C",
"5  c #2A2B5D",
"6  c #2B315D",
"7  c #32315E",
"8  c #252562",
"9  c #292760",
"0  c #262961",
"q  c #2B2D63",
"w  c #2D2E69",
"e  c #312E65",
"r  c #302F69",
"t  c #2E3164",
"y  c #2F3169",
"u  c #313365",
"i  c #333965",
"p  c #383967",
"a  c #33356B",
"s  c #393769",
"d  c #35396C",
"f  c #3A3A6D",
"g  c #2F2E70",
"h  c #353572",
"j  c #383772",
"k  c #363971",
"l  c #3B3C73",
"z  c #373B78",
"x  c #3D3D7B",
"c  c #403D72",
"v  c #403F78",
"b  c #3B416E",
"n  c #3D4174",
"m  c #3E4279",
"M  c #414475",
"N  c #444976",
"B  c #43457B",
"V  c #45497C",
"C  c #494B7D",
"Z  c #4A517E",
"A  c #454582",
"S  c #484781",
"D  c #424882",
"F  c #434880",
"G  c #444981",
"H  c #474A81",
"J  c #454A82",
"K  c #444B82",
"L  c #474F80",
"P  c #474C84",
"I  c #464D84",
"U  c #474E85",
"Y  c #464C86",
"T  c #464A81",
"R  c #494B86",
"E  c #484D85",
"W  c #4A4C85",
"Q  c #4B4D86",
"!  c #494E86",
"~  c #484F86",
"^  c #4A4F87",
"/  c #4B4D83",
"(  c #474B88",
")  c #4A498B",
"_  c #4C4C8A",
"`  c #4B4A8C",
"'  c #4C4C8C",
"]  c #4D4C8E",
"[  c #4E4F8F",
"{  c #4C4D89",
"}  c #4F5182",
"|  c #495087",
" . c #4D5087",
".. c #4D5284",
"X. c #4B5088",
"o. c #4C5189",
"O. c #4E538B",
"+. c #4E5188",
"@. c #515386",
"#. c #50558D",
"$. c #52578F",
"%. c #52548B",
"&. c #55588B",
"*. c #595B8E",
"=. c #4F4E90",
"-. c #505090",
";. c #515092",
":. c #505690",
">. c #515791",
",. c #555496",
"<. c #535691",
"1. c #535990",
"2. c #535993",
"3. c #565B93",
"4. c #565B95",
"5. c #575C94",
"6. c #555A91",
"7. c #595E96",
"8. c #5B5D93",
"9. c #575698",
"0. c #585799",
"q. c #595F99",
"w. c #5E5D9F",
"e. c #5D5F99",
"r. c #5E6195",
"t. c #5B6098",
"y. c #5C6199",
"u. c #5E639B",
"i. c #5D639D",
"p. c #5E649E",
"a. c #5F629A",
"s. c #616396",
"d. c #60659D",
"f. c #62649A",
"g. c #66699C",
"h. c #686A9A",
"j. c #605FA1",
"k. c #6066A0",
"l. c #6564A6",
"z. c #6164A0",
"x. c #6368A0",
"c. c #6268A2",
"v. c #676CA4",
"b. c #676AA1",
"n. c #686DA5",
"m. c #6869A1",
"M. c #6868A8",
"N. c #6B71A3",
/* pixels */
"0 #.t.P o.x.v.u.u.3.k 0 d.3.^ 4.M.0.,.) =.g x w.=.j.l.9.` ' -.' ; 1.u.P :.x.k.u.u.t.m q u.:.F :.v.8.O.o.X.0 F 3.o.d.d.#.X.^ o.5.",
"0 F ^ m m B B B P P y ; 1.G l R _ x x z A w h -.h A ' A A A x h q ..~ k n m m ~ P P d 4 1.V k K ^ m z m B 2 m ^ k G P B B m l l ",
"q l x a a q 0 w d l w 2 ^ k w l d q a w x 4 a V 0 y a a j k a 2 q m n t t 5 ; d y d t ; L d t k y w w a l 2 l B 0 a y y k k w q ",
"q x l y y w 0 q y a y 0 ^ k q y u w a w l 4 a C q w 0 0 w d a q < n b t d t ; 5 t i t 4 Z d 6 t q q w a l ; x B q y 0 0 a d a d ",
"q B m q w k a q a a y w  .l y q q u f 5 d 4 f } 5 t u t t u d i - M b 6 i d 6 6 i t i 6 Z d 6 5 q a d y a ; m G 0 a w w a a a m ",
"0 m k 2 0 d y 4 a q w 0 V d y 4 > 5 u > u < d C > 5 u i u 5 5 t < M p = 4 i 6 5 i 6 t 6 N i 6 < 4 w y 0 y $ x m $ q a a d w 0 d ",
"0 a q $ 2 0 4 2 w 4 0 4 k 9 0 2 > 2 5 + q < q u - < 5 t 5 2 2 4 > i 4 O 4 5 ; 4 5 < 6 < d < 4 4 2 4 0 2 w $ d w # 4 0 w a 4 2 a ",
"0 0 ; ; 0 2 ; 0 0 ; 0 2 0 # 4 4 4 4 4 + t 2 2 # 4 2 2 2 > > 2 5 # 4 ; ; y 4 O 4 ; - 5 ; 5 + 4 4 4 4 2 $ y 2 y # 2 4 2 2 0 2 2 a ",
"f.%.%.V k q *.%.C *.s.8.8.r./ a k $.R Q 8.f.8.V $.M q V 3.$.e.8.8.o.%.V l y 3.^ G 3.r.8.r.u.Q y x $.R / 8.f.8.C %./ > %.3.%.g.f.",
"B k M M k q %.V d B C B C @.V a l #.A B _ R R j B x a A R x R #.B l B x j w O.B l V R V { #.J a k %.M x C C V a l B 2 @.V d / %.",
"u 5 a f a 5 / x 4 w u q u l f 0 h ) l a h a h 8 h h w x x w h j w w j j h 9 R l 8 w w 9 w l h 9 d / k u a a a 5 u k 2 R k 0 a l ",
"d 5 u a u 2 / x 0 e w 4 0 a a 9 a A h w w 9 a w j w 2 l v w w $ w 9 d j a 9 A a w a a w w l j w a C d q w q a w d d $ B x a q 5 ",
"f 5 e a a 3 C f u a s u u a a w d R j w t q d d d d w m V d a 4 w 4 a d a 0 R d a d d w a d d q a C a q q 5 a a a a 2 B l d q q ",
"q > q a f 5 M q 3 q u q q u u q a B u 5 q 4 u u 2 u u m a 2 q t 4 - 5 t u 4 C a 2 4 5 4 5 t 5 2 u N u q q 2 u u 5 u u B q q 5 f ",
"5 # 3 e u > f > & 2 3 2 3 3 3 2 5 i < > < = < < + 5 5 u 5 O 5 5 > + < 5 5 : b < < 5 5 5 5 6 6 5 5 f 3 3 5 > 5 3 > 5 e f > 3 > f ",
"u # > 2 2 + a > 2 5 5 2 2 2 2 2 > t - > 5 > 5 5 < 5 + 4 5 > 5 > > + 5 5 5 + u O > > > > > > > > > q & > 5 > 3 2 q 2 & 5 & 5 & e ",
"2 @.8.V / f.g.r.r.@.n u *.@. .%.f.3._ o.R d l f.o.u.f.$.R ^ %.o.> &.r.N } s.s.s.h.&.n y *.@.}  .g.$.Q Q Q 0 S 3.%.g.f.%./ C / $.",
"4 N ..n n B B B  .N d 5 O.V m V ^ B l B B a j <.l A _ A B B x d 4 / ..l m B m V ..B d 5  .B m B Q M x M A 4 M o.k R R B B x k l ",
"q l l a u q 4 t l d q 2 / n a a d a w d k q w G q a a a d k a 2 4 M n u a q 2 u d d u 4 V d u d d w w a x ; k M q d a w k j w w ",
"q l l t t q 5 q u t q 4 / d q 5 t u t u a 5 t V q q q 5 t a a q 5 M l t a t 4 t t u u q / d q t a w a a k $ k M w a w 0 a d a d ",
"5 M n 5 q d a q t u u q } d 5 5 5 i i u u 5 u C 5 6 t t t u i i 4 V m 5 u f u t u a a t  .f q 5 a d k d k 2 B R w a a w d a d m ",
"4 n d > 4 a t 2 t u a q C a 5 5 > u u 5 5 5 i C = < u u u 5 5 5 > M f > q d q 5 u u t 5 C a 4 4 4 w a 0 w $ M B - w a a d w w k ",
"5 a q - 2 q 4 2 5 q q > n 5 > 5 - 5 4 > 5 5 5 i + < 5 t 5 4 < 2 - a q # 5 q > 2 4 q 5 > l 5 > 5 $ 2 2 $ 0 $ d w # 4 0 w y 4 2 a ",
"q 5 > > 5 4 > 5 2 4 2 O a - # 2 > 4 > # 5 5 > # 4 2 4 4 2 2 2 5 - 5 - # q 2 + 5 - 2 4 + u # - q 4 9 2 $ w 2 w # 2 4 2 2 4 2 2 a ",
"r.@.%.C l u *./ C *.s.8.8.r./ a l <._ _ 8.8.8.R $.R 2 R e.^ x.8.8./ } C M u *.@.C *.r.8.r.s./ u x 3.Q Q 3.8.8.R %.R $ #.3.%.f.f.",
"V l M l a q %.C d B C B C @.V a k #.A B R A A j x B 8 R _ a ' o.R l M M l t &./ f B V B C @.V t k %.V x A G V d l M 2 Q V d R %.",
"u 5 a u u 5 / M 2 q u 5 u f f 0 j ) z h h r h w j h 8 A A 9 h j a 5 a a u 2 / M 5 e q 5 u l f 5 d R k w d d d 0 a k 2 V k 0 a l ",
"u 5 a a u 2 C f 5 u q 2 5 u u 5 a A h w w w h w l a 8 x A w w 2 w 2 u a u 2 C a q u q 2 5 a u 2 d V a 0 a w d w k d $ M x a w q ",
"u 5 a a a 5 C a u s a u u a a w a A d w w w d a d w 0 x B a q 4 e 5 a f a q / p a a a u u f a q d V a 0 a w j a d a 4 B l d q w ",
"q 2 u u u 2 B u 5 q u q q u u q a M u q w 5 t w 4 0 a x a 4 4 a 2 > u u u 5 C u 5 q q q e a u 5 a M w 0 w 9 a w 2 w w M q 0 2 d ",
"3 & 5 q q & c 3 & 2 3 2 3 3 3 2 5 d 2 2 5 < 5 < > < u u 5 > > u > # 5 3 3 & c > > > 2 2 3 5 3 2 0 k 0 4 0 2 0 9 $ 4 w k 2 2 $ d ",
"0 & 5 5 4 + d # 2 5 5 2 2 2 4 2 > 5 + > 5 < 4 > 5 - > < 4 4 > 5 5 2 q 2 2 # s + 3 5 2 2 2 5 2 2 $ w 2 2 4 $ 4 4 0 2 2 w 2 w $ w ",
"2 %.8.V Q f.b.r.8.3.l 0 u.%.G 3.g.*. .@.C i l s./ 8.f.%.C C } / 2 O.r.C V f.N.r.g.O.n t r.&.O.O.b.3.#.R  .t x 8.o.f.u.o.R G ^ 3.",
"0 V ^ l n B B B ^ ^ a 2 3.G l / / M l M M u d %.d B / V M B l u 4 C O.n b N N N ..m i 4 ..N m N Q m m l G q k %.k R R B B m l x ",
"q l x d a q 0 w l l q ; o.x y d a t q a f q t C 5 u a a f f u 2 4 N m t d t ; i d i t 4 V d i d d q y y m 0 a G q d a a l k y q ",
"w x l y y w 0 q a a q 4 ^ k q q q t q u a 5 t V t u q q u f d q ; C n 4 d y - y y y t 5 L d t y t q a q l 4 a G w a q q d k a d ",
"q M m q q k a q a a a w ^ k w q 0 u u u t 5 a / q u u t t a d d - ..n - d d 5 y d d y t ..k t 5 q y k q d 4 k ^ q a y y a a a x ",
"0 m k 2 4 d y 2 a t a t V a y q 2 t t 5 q 5 a C - 5 u a t q q q # N d @ 5 d 5 4 d y t 4 C d 5 4 2 q a 2 a 4 k R - q y a d q 0 d ",
"0 d q ; 4 w 4 2 y 4 w 4 k 4 0 4 2 q 4 > 5 5 5 u # > 5 q 5 2 2 4 - y t - 4 t 4 ; 0 q 5 - n 5 ; 4 2 0 q # t 4 t a # 4 0 q t 2 ; y ",
"w 0 2 2 0 4 2 0 0 $ 4 $ q $ 4 - 4 q 2 - 5 5 - + 4 2 2 > > > 2 5 2 2 2 2 4 4 4 4 ; 4 4 O y - - 5 4 4 4 @ t 2 2 # 0 0 2 2 4 ; ; a ",
"f.3.V R M 9 f.Q A 3.f.f.8.8.Q d l %.C / 8.s.8.V @.C 2 C 8./ g.*.f. ./ B f q *.%.V *.s.r.s.s./ u l $.^ Q 8.f.r.G #.^ $ %.3.%.d.u.",
"B x k B x 4 3.M d M V M A _ B w l @.B M / / C d l M 5 B C u } / M d m M l q  .B u m V B V  .B q k %.B m R R V a m B 2 ^ B k ^ %.",
"r q w j j 4 +.l 0 w w 0 a v k 4 a C f u a u a 4 u d 4 n l 2 d u 5 2 a f d 5 C f 2 t t q u l d 5 d ^ l a a a a 0 a k - B k 0 a l ",
"d 0 w a a 2 / l w a w 9 w d d 5 u B a q q 5 u 5 a u > f M t t > t 4 u u t 2 C f 5 u t 4 q a u 5 a G d q t q a q k a # m l a q 0 ",
"j 9 a a a 9 A j w d d e w a a w d C d u u q d a a u 5 l M a q > u 5 u u t 4 C d u a a t t a u q a V a t t q a a k a 2 m l d q q ",
"w $ a d d q x w 2 w a e q w w w a B u q q 4 t t 2 q d l a 4 5 t 4 > u u u 4 B q 5 q t q q u u q y B y q w 4 y t 0 y t M w q 4 k ",
"q o e e e 9 a 3 * 3 q 9 3 q q 5 4 a 2 2 5 > 4 2 - 2 u t 4 > > t > - q q q > l > > 4 4 2 2 5 5 5 0 k 0 0 q 2 0 4 2 0 q k 2 4 ; d ",
"a o q 2 2 * w 2 4 4 2 2 2 9 4 2 - t - 2 0 2 5 2 4 - 2 > 2 4 > 2 4 - 0 2 2 # k # 4 4 4 2 2 2 4 4 - q ; 2 0 2 4 2 0 ; # q ; q # 0 ",
"2 } 8.V / f.g.8.8.3.l q f.<.R 8.m.$.o.%.B u l *.Q r.f.%.V V _ %.$ :.w.G -.k.z.u.k.t.x q z.:.J 1.u.3.o.G G 0 V O.o.u.u.o.G G ^ 3.",
"4 B / n n B B B P G y 2 3.G l G Q x k B x w k %.d V Q V x m x j w ' { z x D D { ( { h 8 :.D z P ^ m n m B 0 B o.k G G m B m k l ",
"q l n a a q 4 t k k w ; _ x w d d 0 q d d w d R 0 a d d d k a 4 q m l w y 0 2 a a l y 2 ^ k t l y q q y l 2 m B q d a a l k y w ",
"q l l u a t q w a a w 0 _ l q w w 0 w d a 0 d G w w w w a k d q > l l t a q > 5 t a t 4 / d q a q q q t d ; l B w a q q d k a d ",
"5 M m q t d a q a a a y _ l y q w u d d w 0 f R 0 w a a a d d a > N M t d f t t u u u t Z p t 5 t a d a d 2 M / q a t t a a a x ",
"4 n f > 4 a t 2 y q a t V a w 0 5 w a t 5 0 d V $ 4 u a a w q 5 < N p = 5 i 6 6 u 6 t 5 N u 6 4 5 t a w a - m B - q t a a q 4 d ",
"5 i 5 - 2 q 2 2 q 2 q 4 j 9 0 4 2 4 5 4 4 0 w a $ 2 5 q q 4 2 2 > i 5 O < 5 > 5 5 > 5 < d 4 5 4 2 2 4 2 w # a w # 4 0 q w 2 > t ",
"5 5 > > 5 2 > 5 0 $ 4 $ w $ 4 2 4 2 2 2 4 0 4 $ 5 2 2 2 2 2 2 4 - 5 > 2 u 5 # 5 > + 5 > 5 + 5 5 5 4 2 2 a $ q # 4 5 2 2 4 - 2 a ",
"h.@.@.C n u *.@./ *.f.8.s.f.o.d x %.C C *.s.r.C %./ - %.*.@.s.8.8.%.#.R M d 8._ Q 3.f.8.f.f.Q t x &./ } r.s.s.C @.C > &.8.%.g.s.",
"V f M M f q @.B a M B M V Q M w f @.M m C C B u n B 2  .V d C Q V l M x j w $.A d M V B R o.B q f @.M m C C V a f M 2 @.C f / %.",
"u 5 u d i 5 C f 2 q e 5 e l d 5 u C f u d u u > u p - V f 5 u f a w a a w 9 / x 9 r r w a x j 9 a C p u i u u 2 u p > C f 5 i f ",
"i 5 t u u < C f q u q 5 q a a 5 u V d t u 5 u 5 d i + M l u 5 4 w 9 a a a 4 S j w a w 9 w j a 9 u B a 5 q 5 u 5 a i + M f u q 5 ",
"p 5 u i i 1 C p u a a u u a a q d C d t t 5 d d i u > M f p 5 5 q 4 a d a 0 R d e a a w u d a 5 a C a q u 5 i i i u < M f s 5 q ",
"5 > 7 p p 5 M 5 5 q u e u u a 5 d B u 5 5 4 u u 4 t t M t 5 2 a 3 > 5 u u 5 C u 2 5 q 5 u i u 5 u N u 5 e 5 u u 2 q u M 5 5 2 f ",
"1 + 1 7 u > p > > 3 5 3 3 5 5 5 5 d 4 2 5 > 5 4 > 5 5 f < 4 # u < + 1 1 1 : f , : , 1 1 1 1 1 , 5 p 5 3 5 > 1 3 & 3 5 s > , > s ",
"7 % > , >   u & > 3 3 > > 2 2 2 + 5 # > 5 > > - 5 > - 5 > 5 + < , + , , : . 7 X : , , , , 1 1 , % 5 % > 1 > 3 > < > + 1 & 5 % 5 "
};
